<svg width="1062" height="922" viewBox="0 0 1062 922" fill="none" xmlns="http://www.w3.org/2000/svg">
<path d="M730 683.5L739 686.5L744 694L756.5 718.5L774 752L826 797L849 852C849 852 849 874.246 849 888.5V931L853.5 986L863 1004.5L875.5 1017M730 683.5L715.5 647.5L717.5 608.5L719 570L732 538L740.5 517L750 502.5L771 469.5L792 424.5L822 363.5L849.5 323.5L870 297L894.5 265.5L910 248L920.5 240.5L938.5 218.5L973.5 170L1059.5 47M730 683.5L728.88 685.5M728.88 685.5L723 696L717.5 710L713.5 729.5L710 745.5L708 756.5L698 776.5L687 797L673 822L660.5 844L635 889L624.5 907L514 852L492.5 883.5L479 927.5L466.5 979.5M728.88 685.5L705 687L694 686.5L676 681.5L641 671.5L619.5 662L598.5 652.5L574 641L563 635L552.5 633L535.5 629L515 624L497 619L487.5 616.5L476 611L461 604L456.5 601.5L445 602.5L428.5 604.5L421 599L408.5 585.5L396.5 573L384 564.5L368 554L350 542L335.5 532.5L320.5 526L296.5 513.5L279 504.5L270.5 497.5L254.5 487L236.5 476.5L217.5 467L213 464.5L200.5 453L196 441.5L192 428L170 427.5H146.5L117 426.5H114L103 421L96 415.5L87 406L78.5 397L73 385.5L68 383L57 381L49.5 379L41 370.5L44 355.5L48.5 339L58.5 305L66 286.5L77 261L90.5 237L105 207L108.5 197.5L109.5 187.5L104 179.5L90.5 169L106.5 153.5L113 147.5L106.5 138L105 129L109.5 116.5L119.5 109L131 104L142 101L153.5 99L167.5 101L178.5 105.5L188 114.5L195.5 126L203 140L208 153.5L212 169L215 176L219.5 181L226 185L248 192L307.5 213.5L312 214L351 210L366.5 205.5L376 197L392 188L414 183.5L443.5 177L447 175C447 175 449.133 171.038 450.5 168.5L475 129L513.5 70L555.5 17.5L581.5 2" stroke="url(#paint0_radial_20_2)" stroke-width="4"/>
<path d="M448 591.5L444 600.5L434.5 601.5H426.5L419.5 595L410 584L420 577L421.5 571.5L423.5 565L432 553.5L436 554.5L442 556.5L453.5 561.5L457.5 562.5L458.5 568L472.5 575L473.5 580L464 589L457 586L453.5 593.5L448 591.5Z" fill="black" fill-opacity="0.49" stroke="black"/>
<path d="M430.974 546.375C430.937 545.953 430.918 545.526 430.918 545.094C430.919 537.31 437 531 444.5 531C452.001 531 458.082 537.31 458.082 545.094C458.082 545.526 458.063 545.953 458.027 546.375H458.082C458.082 554.077 444.5 572 444.5 572C444.5 572 430.919 554.12 430.919 546.375H430.974ZM444.5 548.938C447.415 549.02 449.845 546.727 449.933 543.812C449.845 540.898 447.415 538.606 444.5 538.688C441.586 538.606 439.156 540.898 439.068 543.812C439.156 546.727 441.586 549.02 444.5 548.938Z" fill="#FF0000"/>
<path d="M467.755 555.921V551.917H465.87L465.844 552.593C465.826 552.931 465.805 553.252 465.779 553.555C465.761 553.85 465.718 554.118 465.649 554.361C465.579 554.604 465.48 554.812 465.35 554.985C465.22 555.15 465.046 555.271 464.83 555.349L462.412 555.024C462.646 555.024 462.836 554.959 462.984 554.829C463.14 554.69 463.261 554.5 463.348 554.257C463.434 554.014 463.495 553.737 463.53 553.425C463.573 553.104 463.603 552.766 463.621 552.411L463.712 549.954H470.225V555.921H467.755ZM462.178 558.456V555.024H471.2V558.456H468.912V557H464.479V558.456H462.178ZM475.888 557.117C475.056 557.117 474.328 556.961 473.704 556.649C473.089 556.328 472.608 555.895 472.261 555.349C471.923 554.794 471.754 554.166 471.754 553.464C471.754 552.762 471.919 552.138 472.248 551.592C472.586 551.037 473.05 550.608 473.639 550.305C474.229 549.993 474.892 549.837 475.628 549.837C476.322 549.837 476.954 549.98 477.526 550.266C478.098 550.543 478.553 550.955 478.891 551.501C479.229 552.047 479.398 552.71 479.398 553.49C479.398 553.577 479.394 553.676 479.385 553.789C479.377 553.902 479.368 554.006 479.359 554.101H473.782V552.801H478.046L477.11 553.165C477.119 552.844 477.058 552.567 476.928 552.333C476.807 552.099 476.634 551.917 476.408 551.787C476.192 551.657 475.936 551.592 475.641 551.592C475.347 551.592 475.087 551.657 474.861 551.787C474.645 551.917 474.476 552.103 474.354 552.346C474.233 552.58 474.172 552.857 474.172 553.178V553.555C474.172 553.902 474.242 554.201 474.38 554.452C474.528 554.703 474.736 554.898 475.004 555.037C475.273 555.167 475.594 555.232 475.966 555.232C476.313 555.232 476.608 555.184 476.85 555.089C477.102 554.985 477.349 554.829 477.591 554.621L478.891 555.973C478.553 556.346 478.137 556.632 477.643 556.831C477.149 557.022 476.564 557.117 475.888 557.117ZM485.137 557.117C484.539 557.117 484.027 556.987 483.603 556.727C483.178 556.458 482.853 556.06 482.628 555.531C482.411 554.994 482.303 554.309 482.303 553.477C482.303 552.636 482.407 551.952 482.615 551.423C482.823 550.886 483.135 550.487 483.551 550.227C483.975 549.967 484.504 549.837 485.137 549.837C485.778 549.837 486.359 549.989 486.879 550.292C487.407 550.587 487.823 551.007 488.127 551.553C488.439 552.09 488.595 552.732 488.595 553.477C488.595 554.222 488.439 554.868 488.127 555.414C487.823 555.96 487.407 556.38 486.879 556.675C486.359 556.97 485.778 557.117 485.137 557.117ZM480.704 559.522V549.954H483.057V551.15L483.044 553.477L483.174 555.817V559.522H480.704ZM484.617 555.154C484.894 555.154 485.141 555.089 485.358 554.959C485.583 554.829 485.761 554.638 485.891 554.387C486.029 554.136 486.099 553.832 486.099 553.477C486.099 553.122 486.029 552.818 485.891 552.567C485.761 552.316 485.583 552.125 485.358 551.995C485.141 551.865 484.894 551.8 484.617 551.8C484.339 551.8 484.088 551.865 483.863 551.995C483.646 552.125 483.468 552.316 483.33 552.567C483.2 552.818 483.135 553.122 483.135 553.477C483.135 553.832 483.2 554.136 483.33 554.387C483.468 554.638 483.646 554.829 483.863 554.959C484.088 555.089 484.339 555.154 484.617 555.154ZM493.408 557.117C492.576 557.117 491.848 556.961 491.224 556.649C490.608 556.328 490.127 555.895 489.781 555.349C489.443 554.794 489.274 554.166 489.274 553.464C489.274 552.762 489.438 552.138 489.768 551.592C490.106 551.037 490.569 550.608 491.159 550.305C491.748 549.993 492.411 549.837 493.148 549.837C493.841 549.837 494.474 549.98 495.046 550.266C495.618 550.543 496.073 550.955 496.411 551.501C496.749 552.047 496.918 552.71 496.918 553.49C496.918 553.577 496.913 553.676 496.905 553.789C496.896 553.902 496.887 554.006 496.879 554.101H491.302V552.801H495.566L494.63 553.165C494.638 552.844 494.578 552.567 494.448 552.333C494.326 552.099 494.153 551.917 493.928 551.787C493.711 551.657 493.455 551.592 493.161 551.592C492.866 551.592 492.606 551.657 492.381 551.787C492.164 551.917 491.995 552.103 491.874 552.346C491.752 552.58 491.692 552.857 491.692 553.178V553.555C491.692 553.902 491.761 554.201 491.9 554.452C492.047 554.703 492.255 554.898 492.524 555.037C492.792 555.167 493.113 555.232 493.486 555.232C493.832 555.232 494.127 555.184 494.37 555.089C494.621 554.985 494.868 554.829 495.111 554.621L496.411 555.973C496.073 556.346 495.657 556.632 495.163 556.831C494.669 557.022 494.084 557.117 493.408 557.117ZM498.223 557V549.954H502.006C502.916 549.954 503.627 550.114 504.138 550.435C504.649 550.747 504.905 551.198 504.905 551.787C504.905 552.35 504.667 552.801 504.19 553.139C503.722 553.468 503.089 553.633 502.292 553.633L502.513 553.113C503.371 553.113 504.017 553.273 504.45 553.594C504.892 553.906 505.113 554.365 505.113 554.972C505.113 555.596 504.87 556.09 504.385 556.454C503.908 556.818 503.176 557 502.188 557H498.223ZM500.433 555.401H501.967C502.27 555.401 502.496 555.349 502.643 555.245C502.79 555.132 502.864 554.968 502.864 554.751C502.864 554.526 502.79 554.361 502.643 554.257C502.504 554.153 502.288 554.101 501.993 554.101H500.433V555.401ZM500.433 552.788H501.785C502.08 552.788 502.296 552.736 502.435 552.632C502.574 552.519 502.643 552.359 502.643 552.151C502.643 551.943 502.574 551.791 502.435 551.696C502.296 551.592 502.08 551.54 501.785 551.54H500.433V552.788ZM506.361 557V549.954H508.818V552.567H511.353V549.954H513.823V557H511.353V554.53H508.818V557H506.361ZM519.922 557V554.712L520.247 555.089H518.453C517.404 555.089 516.576 554.877 515.97 554.452C515.363 554.019 515.06 553.403 515.06 552.606C515.06 551.757 515.376 551.102 516.009 550.643C516.641 550.184 517.495 549.954 518.57 549.954H522.119V557H519.922ZM514.943 557L516.802 554.322H519.298L517.556 557H514.943ZM519.922 553.971V551.293L520.247 551.904H518.622C518.292 551.904 518.037 551.969 517.855 552.099C517.673 552.22 517.582 552.42 517.582 552.697C517.582 553.234 517.924 553.503 518.609 553.503H520.247L519.922 553.971ZM527.705 557V547.9H529.824L533.581 554.088H532.463L536.142 547.9H538.261L538.287 557H535.908L535.895 551.501H536.298L533.555 556.103H532.411L529.59 551.501H530.071V557H527.705ZM540.08 557V549.954H542.537V553.646L545.488 549.954H547.763V557H545.293V553.295L542.368 557H540.08ZM548.591 557L551.828 552.749L551.776 554.153L548.669 549.954H551.451L553.193 552.437L552.153 552.489L553.999 549.954H556.612L553.505 554.062V552.71L556.703 557H553.882L552.062 554.348L553.102 554.491L551.269 557H548.591ZM561.582 557V555.687L561.413 555.362V552.944C561.413 552.554 561.291 552.255 561.049 552.047C560.815 551.83 560.438 551.722 559.918 551.722C559.58 551.722 559.237 551.778 558.891 551.891C558.544 551.995 558.249 552.142 558.007 552.333L557.175 550.656C557.573 550.396 558.05 550.197 558.605 550.058C559.168 549.911 559.727 549.837 560.282 549.837C561.426 549.837 562.31 550.101 562.934 550.63C563.566 551.15 563.883 551.969 563.883 553.087V557H561.582ZM559.502 557.117C558.938 557.117 558.462 557.022 558.072 556.831C557.682 556.64 557.383 556.38 557.175 556.051C556.975 555.722 556.876 555.353 556.876 554.946C556.876 554.513 556.984 554.14 557.201 553.828C557.426 553.507 557.768 553.265 558.228 553.1C558.687 552.927 559.281 552.84 560.009 552.84H561.673V554.127H560.347C559.948 554.127 559.666 554.192 559.502 554.322C559.346 554.452 559.268 554.625 559.268 554.842C559.268 555.059 559.35 555.232 559.515 555.362C559.679 555.492 559.905 555.557 560.191 555.557C560.459 555.557 560.702 555.492 560.919 555.362C561.144 555.223 561.309 555.015 561.413 554.738L561.751 555.648C561.621 556.133 561.365 556.502 560.984 556.753C560.611 556.996 560.117 557.117 559.502 557.117ZM565.369 557V549.954H567.826V553.646L570.777 549.954H573.052V557H570.582V553.295L567.657 557H565.369ZM569.035 549.278C568.203 549.278 567.587 549.105 567.189 548.758C566.799 548.403 566.599 547.861 566.591 547.133H568.19C568.198 547.419 568.263 547.644 568.385 547.809C568.515 547.965 568.727 548.043 569.022 548.043C569.316 548.043 569.533 547.965 569.672 547.809C569.81 547.644 569.88 547.419 569.88 547.133H571.505C571.505 547.861 571.301 548.403 570.894 548.758C570.495 549.105 569.875 549.278 569.035 549.278ZM573.997 557L574.101 554.985C574.162 554.994 574.218 555.002 574.27 555.011C574.322 555.011 574.37 555.011 574.413 555.011C574.63 555.011 574.799 554.959 574.92 554.855C575.05 554.742 575.146 554.591 575.206 554.4C575.276 554.209 575.323 553.988 575.349 553.737C575.384 553.477 575.406 553.195 575.414 552.892L575.518 549.954H581.888V557H579.418V551.358L579.964 551.917H577.143L577.663 551.332L577.585 552.996C577.559 553.629 577.503 554.205 577.416 554.725C577.338 555.236 577.213 555.674 577.039 556.038C576.866 556.402 576.628 556.684 576.324 556.883C576.03 557.074 575.653 557.169 575.193 557.169C575.029 557.169 574.842 557.152 574.634 557.117C574.435 557.091 574.223 557.052 573.997 557ZM587.019 557.117C586.248 557.117 585.563 556.961 584.965 556.649C584.367 556.337 583.895 555.908 583.548 555.362C583.21 554.807 583.041 554.175 583.041 553.464C583.041 552.753 583.21 552.125 583.548 551.579C583.895 551.033 584.367 550.608 584.965 550.305C585.563 549.993 586.248 549.837 587.019 549.837C587.791 549.837 588.475 549.993 589.073 550.305C589.68 550.608 590.152 551.033 590.49 551.579C590.828 552.125 590.997 552.753 590.997 553.464C590.997 554.175 590.828 554.807 590.49 555.362C590.152 555.908 589.68 556.337 589.073 556.649C588.475 556.961 587.791 557.117 587.019 557.117ZM587.019 555.154C587.305 555.154 587.557 555.089 587.773 554.959C587.999 554.829 588.176 554.638 588.306 554.387C588.436 554.127 588.501 553.819 588.501 553.464C588.501 553.109 588.436 552.81 588.306 552.567C588.176 552.316 587.999 552.125 587.773 551.995C587.557 551.865 587.305 551.8 587.019 551.8C586.742 551.8 586.491 551.865 586.265 551.995C586.049 552.125 585.871 552.316 585.732 552.567C585.602 552.81 585.537 553.109 585.537 553.464C585.537 553.819 585.602 554.127 585.732 554.387C585.871 554.638 586.049 554.829 586.265 554.959C586.491 555.089 586.742 555.154 587.019 555.154ZM592.156 557V549.954H595.939C596.849 549.954 597.559 550.114 598.071 550.435C598.582 550.747 598.838 551.198 598.838 551.787C598.838 552.35 598.599 552.801 598.123 553.139C597.655 553.468 597.022 553.633 596.225 553.633L596.446 553.113C597.304 553.113 597.949 553.273 598.383 553.594C598.825 553.906 599.046 554.365 599.046 554.972C599.046 555.596 598.803 556.09 598.318 556.454C597.841 556.818 597.109 557 596.121 557H592.156ZM594.366 555.401H595.9C596.203 555.401 596.428 555.349 596.576 555.245C596.723 555.132 596.797 554.968 596.797 554.751C596.797 554.526 596.723 554.361 596.576 554.257C596.437 554.153 596.22 554.101 595.926 554.101H594.366V555.401ZM594.366 552.788H595.718C596.012 552.788 596.229 552.736 596.368 552.632C596.506 552.519 596.576 552.359 596.576 552.151C596.576 551.943 596.506 551.791 596.368 551.696C596.229 551.592 596.012 551.54 595.718 551.54H594.366V552.788ZM605.233 557L603.088 553.711L605.077 552.541L608.145 557H605.233ZM600.293 557V549.954H602.763V557H600.293ZM602.035 554.491V552.554H604.583V554.491H602.035ZM605.324 553.75L603.01 553.516L605.376 549.954H607.989L605.324 553.75ZM613.01 557V555.687L612.841 555.362V552.944C612.841 552.554 612.72 552.255 612.477 552.047C612.243 551.83 611.866 551.722 611.346 551.722C611.008 551.722 610.666 551.778 610.319 551.891C609.973 551.995 609.678 552.142 609.435 552.333L608.603 550.656C609.002 550.396 609.479 550.197 610.033 550.058C610.597 549.911 611.156 549.837 611.71 549.837C612.854 549.837 613.738 550.101 614.362 550.63C614.995 551.15 615.311 551.969 615.311 553.087V557H613.01ZM610.93 557.117C610.367 557.117 609.89 557.022 609.5 556.831C609.11 556.64 608.811 556.38 608.603 556.051C608.404 555.722 608.304 555.353 608.304 554.946C608.304 554.513 608.413 554.14 608.629 553.828C608.855 553.507 609.197 553.265 609.656 553.1C610.116 552.927 610.709 552.84 611.437 552.84H613.101V554.127H611.775C611.377 554.127 611.095 554.192 610.93 554.322C610.774 554.452 610.696 554.625 610.696 554.842C610.696 555.059 610.779 555.232 610.943 555.362C611.108 555.492 611.333 555.557 611.619 555.557C611.888 555.557 612.131 555.492 612.347 555.362C612.573 555.223 612.737 555.015 612.841 554.738L613.179 555.648C613.049 556.133 612.794 556.502 612.412 556.753C612.04 556.996 611.546 557.117 610.93 557.117Z" fill="white"/>
<path d="M725.598 730V721.6H726.33L730.17 728.152H729.786L733.59 721.6H734.322V730H733.47V722.932H733.674L730.17 728.932H729.75L726.222 722.932H726.45V730H725.598ZM736.948 730V723.7H737.8V728.704L742.012 723.7H742.768V730H741.916V724.984L737.716 730H736.948ZM744.178 730L746.842 726.544L746.83 726.964L744.298 723.7H745.258L747.334 726.4L746.974 726.388L749.05 723.7H749.986L747.43 727L747.442 726.544L750.13 730H749.158L746.962 727.12L747.298 727.168L745.138 730H744.178ZM755.321 730V728.608L755.285 728.38V726.052C755.285 725.516 755.133 725.104 754.829 724.816C754.533 724.528 754.089 724.384 753.497 724.384C753.089 724.384 752.701 724.452 752.333 724.588C751.965 724.724 751.653 724.904 751.397 725.128L751.013 724.492C751.333 724.22 751.717 724.012 752.165 723.868C752.613 723.716 753.085 723.64 753.581 723.64C754.397 723.64 755.025 723.844 755.465 724.252C755.913 724.652 756.137 725.264 756.137 726.088V730H755.321ZM753.149 730.06C752.677 730.06 752.265 729.984 751.913 729.832C751.569 729.672 751.305 729.456 751.121 729.184C750.937 728.904 750.845 728.584 750.845 728.224C750.845 727.896 750.921 727.6 751.073 727.336C751.233 727.064 751.489 726.848 751.841 726.688C752.201 726.52 752.681 726.436 753.281 726.436H755.453V727.072H753.305C752.697 727.072 752.273 727.18 752.033 727.396C751.801 727.612 751.685 727.88 751.685 728.2C751.685 728.56 751.825 728.848 752.105 729.064C752.385 729.28 752.777 729.388 753.281 729.388C753.761 729.388 754.173 729.28 754.517 729.064C754.869 728.84 755.125 728.52 755.285 728.104L755.477 728.692C755.317 729.108 755.037 729.44 754.637 729.688C754.245 729.936 753.749 730.06 753.149 730.06ZM758.405 730V723.7H759.257V728.704L763.469 723.7H764.225V730H763.373V724.984L759.173 730H758.405ZM761.261 722.788C760.733 722.788 760.305 722.656 759.977 722.392C759.657 722.12 759.489 721.732 759.473 721.228H760.085C760.093 721.548 760.205 721.8 760.421 721.984C760.637 722.168 760.917 722.26 761.261 722.26C761.605 722.26 761.885 722.168 762.101 721.984C762.325 721.8 762.441 721.548 762.449 721.228H763.061C763.053 721.732 762.885 722.12 762.557 722.392C762.229 722.656 761.797 722.788 761.261 722.788ZM765.515 729.988L765.575 729.256C765.631 729.264 765.683 729.276 765.731 729.292C765.787 729.3 765.835 729.304 765.875 729.304C766.131 729.304 766.335 729.208 766.487 729.016C766.647 728.824 766.767 728.568 766.847 728.248C766.927 727.928 766.983 727.568 767.015 727.168C767.047 726.76 767.075 726.352 767.099 725.944L767.207 723.7H771.827V730H770.975V724.192L771.191 724.444H767.759L767.963 724.18L767.867 726.004C767.843 726.548 767.799 727.068 767.735 727.564C767.679 728.06 767.587 728.496 767.459 728.872C767.339 729.248 767.171 729.544 766.955 729.76C766.739 729.968 766.463 730.072 766.127 730.072C766.031 730.072 765.931 730.064 765.827 730.048C765.731 730.032 765.627 730.012 765.515 729.988ZM776.841 730.06C776.233 730.06 775.685 729.924 775.197 729.652C774.717 729.372 774.337 728.992 774.057 728.512C773.777 728.024 773.637 727.468 773.637 726.844C773.637 726.212 773.777 725.656 774.057 725.176C774.337 724.696 774.717 724.32 775.197 724.048C775.677 723.776 776.225 723.64 776.841 723.64C777.465 723.64 778.017 723.776 778.497 724.048C778.985 724.32 779.365 724.696 779.637 725.176C779.917 725.656 780.057 726.212 780.057 726.844C780.057 727.468 779.917 728.024 779.637 728.512C779.365 728.992 778.985 729.372 778.497 729.652C778.009 729.924 777.457 730.06 776.841 730.06ZM776.841 729.304C777.297 729.304 777.701 729.204 778.053 729.004C778.405 728.796 778.681 728.508 778.881 728.14C779.089 727.764 779.193 727.332 779.193 726.844C779.193 726.348 779.089 725.916 778.881 725.548C778.681 725.18 778.405 724.896 778.053 724.696C777.701 724.488 777.301 724.384 776.853 724.384C776.405 724.384 776.005 724.488 775.653 724.696C775.301 724.896 775.021 725.18 774.813 725.548C774.605 725.916 774.501 726.348 774.501 726.844C774.501 727.332 774.605 727.764 774.813 728.14C775.021 728.508 775.301 728.796 775.653 729.004C776.005 729.204 776.401 729.304 776.841 729.304ZM781.878 730V723.7H784.662C785.374 723.7 785.934 723.836 786.342 724.108C786.758 724.38 786.966 724.78 786.966 725.308C786.966 725.82 786.77 726.216 786.378 726.496C785.986 726.768 785.47 726.904 784.83 726.904L784.998 726.652C785.75 726.652 786.302 726.792 786.654 727.072C787.006 727.352 787.182 727.756 787.182 728.284C787.182 728.828 786.982 729.252 786.582 729.556C786.19 729.852 785.578 730 784.746 730H781.878ZM782.706 729.328H784.71C785.246 729.328 785.65 729.244 785.922 729.076C786.202 728.9 786.342 728.62 786.342 728.236C786.342 727.852 786.218 727.572 785.97 727.396C785.722 727.22 785.33 727.132 784.794 727.132H782.706V729.328ZM782.706 726.496H784.602C785.09 726.496 785.462 726.404 785.718 726.22C785.982 726.036 786.114 725.768 786.114 725.416C786.114 725.064 785.982 724.8 785.718 724.624C785.462 724.448 785.09 724.36 784.602 724.36H782.706V726.496ZM793.799 730L791.207 726.88L791.915 726.46L794.807 730H793.799ZM789.179 730V723.7H790.031V730H789.179ZM789.767 727.192V726.46H791.795V727.192H789.767ZM791.987 726.94L791.195 726.82L793.703 723.7H794.627L791.987 726.94ZM799.946 730V728.608L799.91 728.38V726.052C799.91 725.516 799.758 725.104 799.454 724.816C799.158 724.528 798.714 724.384 798.122 724.384C797.714 724.384 797.326 724.452 796.958 724.588C796.59 724.724 796.278 724.904 796.022 725.128L795.638 724.492C795.958 724.22 796.342 724.012 796.79 723.868C797.238 723.716 797.71 723.64 798.206 723.64C799.022 723.64 799.65 723.844 800.09 724.252C800.538 724.652 800.762 725.264 800.762 726.088V730H799.946ZM797.774 730.06C797.302 730.06 796.89 729.984 796.538 729.832C796.194 729.672 795.93 729.456 795.746 729.184C795.562 728.904 795.47 728.584 795.47 728.224C795.47 727.896 795.546 727.6 795.698 727.336C795.858 727.064 796.114 726.848 796.466 726.688C796.826 726.52 797.306 726.436 797.906 726.436H800.078V727.072H797.93C797.322 727.072 796.898 727.18 796.658 727.396C796.426 727.612 796.31 727.88 796.31 728.2C796.31 728.56 796.45 728.848 796.73 729.064C797.01 729.28 797.402 729.388 797.906 729.388C798.386 729.388 798.798 729.28 799.142 729.064C799.494 728.84 799.75 728.52 799.91 728.104L800.102 728.692C799.942 729.108 799.662 729.44 799.262 729.688C798.87 729.936 798.374 730.06 797.774 730.06Z" fill="white"/>
<path d="M196.527 437L193.299 432.812L194.019 432.38L197.547 437H196.527ZM190.779 437V428.6H191.643V437H190.779ZM191.379 433.148V432.368H194.007V433.148H191.379ZM194.091 432.896L193.275 432.752L196.407 428.6H197.367L194.091 432.896ZM198.884 437V430.7H199.736V435.704L203.948 430.7H204.704V437H203.852V431.984L199.652 437H198.884ZM210.398 437.06C209.854 437.06 209.362 436.936 208.922 436.688C208.482 436.432 208.13 436.068 207.866 435.596C207.61 435.116 207.482 434.532 207.482 433.844C207.482 433.156 207.61 432.576 207.866 432.104C208.122 431.624 208.47 431.26 208.91 431.012C209.35 430.764 209.846 430.64 210.398 430.64C210.998 430.64 211.534 430.776 212.006 431.048C212.486 431.312 212.862 431.688 213.134 432.176C213.406 432.656 213.542 433.212 213.542 433.844C213.542 434.484 213.406 435.044 213.134 435.524C212.862 436.004 212.486 436.38 212.006 436.652C211.534 436.924 210.998 437.06 210.398 437.06ZM207.146 439.328V430.7H207.962V432.596L207.878 433.856L207.998 435.128V439.328H207.146ZM210.338 436.304C210.786 436.304 211.186 436.204 211.538 436.004C211.89 435.796 212.17 435.508 212.378 435.14C212.586 434.764 212.69 434.332 212.69 433.844C212.69 433.356 212.586 432.928 212.378 432.56C212.17 432.192 211.89 431.904 211.538 431.696C211.186 431.488 210.786 431.384 210.338 431.384C209.89 431.384 209.486 431.488 209.126 431.696C208.774 431.904 208.494 432.192 208.286 432.56C208.086 432.928 207.986 433.356 207.986 433.844C207.986 434.332 208.086 434.764 208.286 435.14C208.494 435.508 208.774 435.796 209.126 436.004C209.486 436.204 209.89 436.304 210.338 436.304ZM215.372 437V430.7H216.224V433.412H218.144V434.192H216.224V437H215.372ZM220.796 437.06C220.196 437.06 219.656 436.924 219.176 436.652C218.704 436.372 218.332 435.992 218.06 435.512C217.788 435.024 217.652 434.468 217.652 433.844C217.652 433.212 217.788 432.656 218.06 432.176C218.332 431.696 218.704 431.32 219.176 431.048C219.656 430.776 220.196 430.64 220.796 430.64C221.396 430.64 221.932 430.776 222.404 431.048C222.876 431.32 223.248 431.696 223.52 432.176C223.792 432.656 223.928 433.212 223.928 433.844C223.928 434.468 223.792 435.024 223.52 435.512C223.248 435.992 222.876 436.372 222.404 436.652C221.932 436.924 221.396 437.06 220.796 437.06ZM220.796 436.316C221.236 436.316 221.628 436.212 221.972 436.004C222.316 435.796 222.588 435.508 222.788 435.14C222.988 434.764 223.088 434.332 223.088 433.844C223.088 433.348 222.988 432.916 222.788 432.548C222.588 432.18 222.316 431.896 221.972 431.696C221.628 431.488 221.236 431.384 220.796 431.384C220.364 431.384 219.972 431.488 219.62 431.696C219.276 431.896 219.004 432.18 218.804 432.548C218.604 432.916 218.504 433.348 218.504 433.844C218.504 434.332 218.604 434.764 218.804 435.14C219.004 435.508 219.276 435.796 219.62 436.004C219.972 436.212 220.364 436.316 220.796 436.316ZM229.895 436.256L229.703 436.484V430.7H230.555V436.484L230.327 436.256H233.843L233.615 436.484V430.7H234.467V437H225.755V430.7H226.607V436.484L226.391 436.256H229.895ZM241.508 437L238.916 433.88L239.624 433.46L242.516 437H241.508ZM236.888 437V430.7H237.74V437H236.888ZM237.476 434.192V433.46H239.504V434.192H237.476ZM239.696 433.94L238.904 433.82L241.412 430.7H242.336L239.696 433.94ZM243.86 437V430.7H244.712V435.704L248.924 430.7H249.68V437H248.828V431.984L244.628 437H243.86ZM252.122 437V430.7H252.974V433.484H256.946V430.7H257.798V437H256.946V434.216H252.974V437H252.122ZM262.812 437.06C262.204 437.06 261.656 436.924 261.168 436.652C260.688 436.372 260.308 435.992 260.028 435.512C259.748 435.024 259.608 434.468 259.608 433.844C259.608 433.212 259.748 432.656 260.028 432.176C260.308 431.696 260.688 431.32 261.168 431.048C261.648 430.776 262.196 430.64 262.812 430.64C263.436 430.64 263.988 430.776 264.468 431.048C264.956 431.32 265.336 431.696 265.608 432.176C265.888 432.656 266.028 433.212 266.028 433.844C266.028 434.468 265.888 435.024 265.608 435.512C265.336 435.992 264.956 436.372 264.468 436.652C263.98 436.924 263.428 437.06 262.812 437.06ZM262.812 436.304C263.268 436.304 263.672 436.204 264.024 436.004C264.376 435.796 264.652 435.508 264.852 435.14C265.06 434.764 265.164 434.332 265.164 433.844C265.164 433.348 265.06 432.916 264.852 432.548C264.652 432.18 264.376 431.896 264.024 431.696C263.672 431.488 263.272 431.384 262.824 431.384C262.376 431.384 261.976 431.488 261.624 431.696C261.272 431.896 260.992 432.18 260.784 432.548C260.576 432.916 260.472 433.348 260.472 433.844C260.472 434.332 260.576 434.764 260.784 435.14C260.992 435.508 261.272 435.796 261.624 436.004C261.976 436.204 262.372 436.304 262.812 436.304Z" fill="white"/>
<path d="M7.66352 396.6H8.53952V405H7.66352V396.6ZM2.40752 405H1.51952V396.6H2.40752V405ZM7.74752 401.124H2.31152V400.344H7.74752V401.124ZM13.763 405.06C13.155 405.06 12.607 404.924 12.119 404.652C11.639 404.372 11.259 403.992 10.979 403.512C10.699 403.024 10.559 402.468 10.559 401.844C10.559 401.212 10.699 400.656 10.979 400.176C11.259 399.696 11.639 399.32 12.119 399.048C12.599 398.776 13.147 398.64 13.763 398.64C14.387 398.64 14.939 398.776 15.419 399.048C15.907 399.32 16.287 399.696 16.559 400.176C16.839 400.656 16.979 401.212 16.979 401.844C16.979 402.468 16.839 403.024 16.559 403.512C16.287 403.992 15.907 404.372 15.419 404.652C14.931 404.924 14.379 405.06 13.763 405.06ZM13.763 404.304C14.219 404.304 14.623 404.204 14.975 404.004C15.327 403.796 15.603 403.508 15.803 403.14C16.011 402.764 16.115 402.332 16.115 401.844C16.115 401.348 16.011 400.916 15.803 400.548C15.603 400.18 15.327 399.896 14.975 399.696C14.623 399.488 14.223 399.384 13.775 399.384C13.327 399.384 12.927 399.488 12.575 399.696C12.223 399.896 11.943 400.18 11.735 400.548C11.527 400.916 11.423 401.348 11.423 401.844C11.423 402.332 11.527 402.764 11.735 403.14C11.943 403.508 12.223 403.796 12.575 404.004C12.927 404.204 13.323 404.304 13.763 404.304ZM18.7999 405V398.7H21.5839C22.2959 398.7 22.8559 398.836 23.2639 399.108C23.6799 399.38 23.8879 399.78 23.8879 400.308C23.8879 400.82 23.6919 401.216 23.2999 401.496C22.9079 401.768 22.3919 401.904 21.7519 401.904L21.9199 401.652C22.6719 401.652 23.2239 401.792 23.5759 402.072C23.9279 402.352 24.1039 402.756 24.1039 403.284C24.1039 403.828 23.9039 404.252 23.5039 404.556C23.1119 404.852 22.4999 405 21.6679 405H18.7999ZM19.6279 404.328H21.6319C22.1679 404.328 22.5719 404.244 22.8439 404.076C23.1239 403.9 23.2639 403.62 23.2639 403.236C23.2639 402.852 23.1399 402.572 22.8919 402.396C22.6439 402.22 22.2519 402.132 21.7159 402.132H19.6279V404.328ZM19.6279 401.496H21.5239C22.0119 401.496 22.3839 401.404 22.6399 401.22C22.9039 401.036 23.0359 400.768 23.0359 400.416C23.0359 400.064 22.9039 399.8 22.6399 399.624C22.3839 399.448 22.0119 399.36 21.5239 399.36H19.6279V401.496ZM28.6927 405.06C28.0847 405.06 27.5367 404.924 27.0487 404.652C26.5687 404.372 26.1887 403.992 25.9087 403.512C25.6287 403.024 25.4887 402.468 25.4887 401.844C25.4887 401.212 25.6287 400.656 25.9087 400.176C26.1887 399.696 26.5687 399.32 27.0487 399.048C27.5287 398.776 28.0767 398.64 28.6927 398.64C29.3167 398.64 29.8687 398.776 30.3487 399.048C30.8367 399.32 31.2167 399.696 31.4887 400.176C31.7687 400.656 31.9087 401.212 31.9087 401.844C31.9087 402.468 31.7687 403.024 31.4887 403.512C31.2167 403.992 30.8367 404.372 30.3487 404.652C29.8607 404.924 29.3087 405.06 28.6927 405.06ZM28.6927 404.304C29.1487 404.304 29.5527 404.204 29.9047 404.004C30.2567 403.796 30.5327 403.508 30.7327 403.14C30.9407 402.764 31.0447 402.332 31.0447 401.844C31.0447 401.348 30.9407 400.916 30.7327 400.548C30.5327 400.18 30.2567 399.896 29.9047 399.696C29.5527 399.488 29.1527 399.384 28.7047 399.384C28.2567 399.384 27.8567 399.488 27.5047 399.696C27.1527 399.896 26.8727 400.18 26.6647 400.548C26.4567 400.916 26.3527 401.348 26.3527 401.844C26.3527 402.332 26.4567 402.764 26.6647 403.14C26.8727 403.508 27.1527 403.796 27.5047 404.004C27.8567 404.204 28.2527 404.304 28.6927 404.304ZM36.3696 405.06C35.7456 405.06 35.1856 404.924 34.6896 404.652C34.2016 404.372 33.8176 403.992 33.5376 403.512C33.2576 403.024 33.1176 402.468 33.1176 401.844C33.1176 401.212 33.2576 400.656 33.5376 400.176C33.8176 399.696 34.2016 399.32 34.6896 399.048C35.1856 398.776 35.7456 398.64 36.3696 398.64C36.9056 398.64 37.3896 398.744 37.8216 398.952C38.2536 399.16 38.5936 399.472 38.8416 399.888L38.2056 400.32C37.9896 400 37.7216 399.764 37.4016 399.612C37.0816 399.46 36.7336 399.384 36.3576 399.384C35.9096 399.384 35.5056 399.488 35.1456 399.696C34.7856 399.896 34.5016 400.18 34.2936 400.548C34.0856 400.916 33.9816 401.348 33.9816 401.844C33.9816 402.34 34.0856 402.772 34.2936 403.14C34.5016 403.508 34.7856 403.796 35.1456 404.004C35.5056 404.204 35.9096 404.304 36.3576 404.304C36.7336 404.304 37.0816 404.228 37.4016 404.076C37.7216 403.924 37.9896 403.692 38.2056 403.38L38.8416 403.812C38.5936 404.22 38.2536 404.532 37.8216 404.748C37.3896 404.956 36.9056 405.06 36.3696 405.06ZM43.0858 405.06C42.4298 405.06 41.8538 404.924 41.3578 404.652C40.8618 404.372 40.4738 403.992 40.1938 403.512C39.9138 403.024 39.7738 402.468 39.7738 401.844C39.7738 401.22 39.9058 400.668 40.1698 400.188C40.4418 399.708 40.8098 399.332 41.2738 399.06C41.7458 398.78 42.2738 398.64 42.8578 398.64C43.4498 398.64 43.9738 398.776 44.4298 399.048C44.8938 399.312 45.2578 399.688 45.5218 400.176C45.7858 400.656 45.9178 401.212 45.9178 401.844C45.9178 401.884 45.9138 401.928 45.9058 401.976C45.9058 402.016 45.9058 402.06 45.9058 402.108H40.4218V401.472H45.4498L45.1138 401.724C45.1138 401.268 45.0138 400.864 44.8138 400.512C44.6218 400.152 44.3578 399.872 44.0218 399.672C43.6858 399.472 43.2978 399.372 42.8578 399.372C42.4258 399.372 42.0378 399.472 41.6938 399.672C41.3498 399.872 41.0818 400.152 40.8898 400.512C40.6978 400.872 40.6018 401.284 40.6018 401.748V401.88C40.6018 402.36 40.7058 402.784 40.9138 403.152C41.1298 403.512 41.4258 403.796 41.8018 404.004C42.1858 404.204 42.6218 404.304 43.1098 404.304C43.4938 404.304 43.8498 404.236 44.1778 404.1C44.5138 403.964 44.8018 403.756 45.0418 403.476L45.5218 404.028C45.2418 404.364 44.8898 404.62 44.4658 404.796C44.0498 404.972 43.5898 405.06 43.0858 405.06ZM46.5229 404.988L46.5829 404.256C46.6389 404.264 46.6909 404.276 46.7389 404.292C46.7949 404.3 46.8429 404.304 46.8829 404.304C47.1389 404.304 47.3429 404.208 47.4949 404.016C47.6549 403.824 47.7749 403.568 47.8549 403.248C47.9349 402.928 47.9909 402.568 48.0229 402.168C48.0549 401.76 48.0829 401.352 48.1069 400.944L48.2149 398.7H52.8349V405H51.9829V399.192L52.1989 399.444H48.7669L48.9709 399.18L48.8749 401.004C48.8509 401.548 48.8069 402.068 48.7429 402.564C48.6869 403.06 48.5949 403.496 48.4669 403.872C48.3469 404.248 48.1789 404.544 47.9629 404.76C47.7469 404.968 47.4709 405.072 47.1349 405.072C47.0389 405.072 46.9389 405.064 46.8349 405.048C46.7389 405.032 46.6349 405.012 46.5229 404.988ZM59.8769 405L57.2849 401.88L57.9929 401.46L60.8849 405H59.8769ZM55.2569 405V398.7H56.1089V405H55.2569ZM55.8449 402.192V401.46H57.8729V402.192H55.8449ZM58.0649 401.94L57.2729 401.82L59.7809 398.7H60.7049L58.0649 401.94ZM66.0244 405V403.608L65.9884 403.38V401.052C65.9884 400.516 65.8364 400.104 65.5324 399.816C65.2364 399.528 64.7924 399.384 64.2004 399.384C63.7924 399.384 63.4044 399.452 63.0364 399.588C62.6684 399.724 62.3564 399.904 62.1004 400.128L61.7164 399.492C62.0364 399.22 62.4204 399.012 62.8684 398.868C63.3164 398.716 63.7884 398.64 64.2844 398.64C65.1004 398.64 65.7284 398.844 66.1684 399.252C66.6164 399.652 66.8404 400.264 66.8404 401.088V405H66.0244ZM63.8524 405.06C63.3804 405.06 62.9684 404.984 62.6164 404.832C62.2724 404.672 62.0084 404.456 61.8244 404.184C61.6404 403.904 61.5484 403.584 61.5484 403.224C61.5484 402.896 61.6244 402.6 61.7764 402.336C61.9364 402.064 62.1924 401.848 62.5444 401.688C62.9044 401.52 63.3844 401.436 63.9844 401.436H66.1564V402.072H64.0084C63.4004 402.072 62.9764 402.18 62.7364 402.396C62.5044 402.612 62.3884 402.88 62.3884 403.2C62.3884 403.56 62.5284 403.848 62.8084 404.064C63.0884 404.28 63.4804 404.388 63.9844 404.388C64.4644 404.388 64.8764 404.28 65.2204 404.064C65.5724 403.84 65.8284 403.52 65.9884 403.104L66.1804 403.692C66.0204 404.108 65.7404 404.44 65.3404 404.688C64.9484 404.936 64.4524 405.06 63.8524 405.06Z" fill="white"/>
<path d="M123.07 181.58V174.368H119.05L118.978 176.408C118.954 177.04 118.914 177.648 118.858 178.232C118.81 178.808 118.73 179.328 118.618 179.792C118.514 180.248 118.37 180.62 118.186 180.908C118.01 181.196 117.778 181.364 117.49 181.412L116.518 181.232C116.838 181.248 117.102 181.132 117.31 180.884C117.526 180.636 117.69 180.288 117.802 179.84C117.922 179.392 118.01 178.868 118.066 178.268C118.122 177.668 118.162 177.02 118.186 176.324L118.282 173.6H123.946V181.58H123.07ZM116.206 183.884L116.218 181.232H125.206V183.884H124.378V182H117.046L117.034 183.884H116.206ZM129.338 182.06C128.682 182.06 128.106 181.924 127.61 181.652C127.114 181.372 126.726 180.992 126.446 180.512C126.166 180.024 126.026 179.468 126.026 178.844C126.026 178.22 126.158 177.668 126.422 177.188C126.694 176.708 127.062 176.332 127.526 176.06C127.998 175.78 128.526 175.64 129.11 175.64C129.702 175.64 130.226 175.776 130.682 176.048C131.146 176.312 131.51 176.688 131.774 177.176C132.038 177.656 132.17 178.212 132.17 178.844C132.17 178.884 132.166 178.928 132.158 178.976C132.158 179.016 132.158 179.06 132.158 179.108H126.674V178.472H131.702L131.366 178.724C131.366 178.268 131.266 177.864 131.066 177.512C130.874 177.152 130.61 176.872 130.274 176.672C129.938 176.472 129.55 176.372 129.11 176.372C128.678 176.372 128.29 176.472 127.946 176.672C127.602 176.872 127.334 177.152 127.142 177.512C126.95 177.872 126.854 178.284 126.854 178.748V178.88C126.854 179.36 126.958 179.784 127.166 180.152C127.382 180.512 127.678 180.796 128.054 181.004C128.438 181.204 128.874 181.304 129.362 181.304C129.746 181.304 130.102 181.236 130.43 181.1C130.766 180.964 131.054 180.756 131.294 180.476L131.774 181.028C131.494 181.364 131.142 181.62 130.718 181.796C130.302 181.972 129.842 182.06 129.338 182.06ZM134.056 182V175.7H134.908V178.484H138.88V175.7H139.732V182H138.88V179.216H134.908V182H134.056ZM142.153 182V175.7H143.005V180.704L147.217 175.7H147.973V182H147.121V176.984L142.921 182H142.153ZM153.055 182.06C152.431 182.06 151.871 181.924 151.375 181.652C150.887 181.372 150.503 180.992 150.223 180.512C149.943 180.024 149.803 179.468 149.803 178.844C149.803 178.212 149.943 177.656 150.223 177.176C150.503 176.696 150.887 176.32 151.375 176.048C151.871 175.776 152.431 175.64 153.055 175.64C153.591 175.64 154.075 175.744 154.507 175.952C154.939 176.16 155.279 176.472 155.527 176.888L154.891 177.32C154.675 177 154.407 176.764 154.087 176.612C153.767 176.46 153.419 176.384 153.043 176.384C152.595 176.384 152.191 176.488 151.831 176.696C151.471 176.896 151.187 177.18 150.979 177.548C150.771 177.916 150.667 178.348 150.667 178.844C150.667 179.34 150.771 179.772 150.979 180.14C151.187 180.508 151.471 180.796 151.831 181.004C152.191 181.204 152.595 181.304 153.043 181.304C153.419 181.304 153.767 181.228 154.087 181.076C154.407 180.924 154.675 180.692 154.891 180.38L155.527 180.812C155.279 181.22 154.939 181.532 154.507 181.748C154.075 181.956 153.591 182.06 153.055 182.06ZM161.797 182L159.205 178.88L159.913 178.46L162.805 182H161.797ZM157.177 182V175.7H158.029V182H157.177ZM157.765 179.192V178.46H159.793V179.192H157.765ZM159.985 178.94L159.193 178.82L161.701 175.7H162.625L159.985 178.94ZM164.15 182V175.7H165.002V180.704L169.214 175.7H169.97V182H169.118V176.984L164.918 182H164.15ZM172.411 182V175.7H173.263V178.484H177.235V175.7H178.087V182H177.235V179.216H173.263V182H172.411ZM183.101 182.06C182.493 182.06 181.945 181.924 181.457 181.652C180.977 181.372 180.597 180.992 180.317 180.512C180.037 180.024 179.897 179.468 179.897 178.844C179.897 178.212 180.037 177.656 180.317 177.176C180.597 176.696 180.977 176.32 181.457 176.048C181.937 175.776 182.485 175.64 183.101 175.64C183.725 175.64 184.277 175.776 184.757 176.048C185.245 176.32 185.625 176.696 185.897 177.176C186.177 177.656 186.317 178.212 186.317 178.844C186.317 179.468 186.177 180.024 185.897 180.512C185.625 180.992 185.245 181.372 184.757 181.652C184.269 181.924 183.717 182.06 183.101 182.06ZM183.101 181.304C183.557 181.304 183.961 181.204 184.313 181.004C184.665 180.796 184.941 180.508 185.141 180.14C185.349 179.764 185.453 179.332 185.453 178.844C185.453 178.348 185.349 177.916 185.141 177.548C184.941 177.18 184.665 176.896 184.313 176.696C183.961 176.488 183.561 176.384 183.113 176.384C182.665 176.384 182.265 176.488 181.913 176.696C181.561 176.896 181.281 177.18 181.073 177.548C180.865 177.916 180.761 178.348 180.761 178.844C180.761 179.332 180.865 179.764 181.073 180.14C181.281 180.508 181.561 180.796 181.913 181.004C182.265 181.204 182.661 181.304 183.101 181.304Z" fill="white"/>
<path d="M344.559 194V185.6H348.051C348.939 185.6 349.635 185.784 350.139 186.152C350.651 186.512 350.907 187.044 350.907 187.748C350.907 188.444 350.663 188.972 350.175 189.332C349.687 189.684 349.047 189.86 348.255 189.86L348.459 189.56C349.395 189.56 350.107 189.744 350.595 190.112C351.083 190.48 351.327 191.02 351.327 191.732C351.327 192.452 351.071 193.012 350.559 193.412C350.055 193.804 349.295 194 348.279 194H344.559ZM345.435 193.292H348.279C348.991 193.292 349.531 193.16 349.899 192.896C350.267 192.632 350.451 192.224 350.451 191.672C350.451 191.128 350.267 190.728 349.899 190.472C349.531 190.216 348.991 190.088 348.279 190.088H345.435V193.292ZM345.435 189.404H348.003C348.651 189.404 349.147 189.276 349.491 189.02C349.843 188.756 350.019 188.368 350.019 187.856C350.019 187.344 349.843 186.96 349.491 186.704C349.147 186.44 348.651 186.308 348.003 186.308H345.435V189.404ZM356.043 194.06C355.387 194.06 354.811 193.924 354.315 193.652C353.819 193.372 353.431 192.992 353.151 192.512C352.871 192.024 352.731 191.468 352.731 190.844C352.731 190.22 352.863 189.668 353.127 189.188C353.399 188.708 353.767 188.332 354.231 188.06C354.703 187.78 355.231 187.64 355.815 187.64C356.407 187.64 356.931 187.776 357.387 188.048C357.851 188.312 358.215 188.688 358.479 189.176C358.743 189.656 358.875 190.212 358.875 190.844C358.875 190.884 358.871 190.928 358.863 190.976C358.863 191.016 358.863 191.06 358.863 191.108H353.379V190.472H358.407L358.071 190.724C358.071 190.268 357.971 189.864 357.771 189.512C357.579 189.152 357.315 188.872 356.979 188.672C356.643 188.472 356.255 188.372 355.815 188.372C355.383 188.372 354.995 188.472 354.651 188.672C354.307 188.872 354.039 189.152 353.847 189.512C353.655 189.872 353.559 190.284 353.559 190.748V190.88C353.559 191.36 353.663 191.784 353.871 192.152C354.087 192.512 354.383 192.796 354.759 193.004C355.143 193.204 355.579 193.304 356.067 193.304C356.451 193.304 356.807 193.236 357.135 193.1C357.471 192.964 357.759 192.756 357.999 192.476L358.479 193.028C358.199 193.364 357.847 193.62 357.423 193.796C357.007 193.972 356.547 194.06 356.043 194.06ZM363.401 194.06C362.777 194.06 362.217 193.924 361.721 193.652C361.233 193.372 360.849 192.992 360.569 192.512C360.289 192.024 360.149 191.468 360.149 190.844C360.149 190.212 360.289 189.656 360.569 189.176C360.849 188.696 361.233 188.32 361.721 188.048C362.217 187.776 362.777 187.64 363.401 187.64C363.937 187.64 364.421 187.744 364.853 187.952C365.285 188.16 365.625 188.472 365.873 188.888L365.237 189.32C365.021 189 364.753 188.764 364.433 188.612C364.113 188.46 363.765 188.384 363.389 188.384C362.941 188.384 362.537 188.488 362.177 188.696C361.817 188.896 361.533 189.18 361.325 189.548C361.117 189.916 361.013 190.348 361.013 190.844C361.013 191.34 361.117 191.772 361.325 192.14C361.533 192.508 361.817 192.796 362.177 193.004C362.537 193.204 362.941 193.304 363.389 193.304C363.765 193.304 364.113 193.228 364.433 193.076C364.753 192.924 365.021 192.692 365.237 192.38L365.873 192.812C365.625 193.22 365.285 193.532 364.853 193.748C364.421 193.956 363.937 194.06 363.401 194.06ZM370.117 194.06C369.461 194.06 368.885 193.924 368.389 193.652C367.893 193.372 367.505 192.992 367.225 192.512C366.945 192.024 366.805 191.468 366.805 190.844C366.805 190.22 366.937 189.668 367.201 189.188C367.473 188.708 367.841 188.332 368.305 188.06C368.777 187.78 369.305 187.64 369.889 187.64C370.481 187.64 371.005 187.776 371.461 188.048C371.925 188.312 372.289 188.688 372.553 189.176C372.817 189.656 372.949 190.212 372.949 190.844C372.949 190.884 372.945 190.928 372.937 190.976C372.937 191.016 372.937 191.06 372.937 191.108H367.453V190.472H372.481L372.145 190.724C372.145 190.268 372.045 189.864 371.845 189.512C371.653 189.152 371.389 188.872 371.053 188.672C370.717 188.472 370.329 188.372 369.889 188.372C369.457 188.372 369.069 188.472 368.725 188.672C368.381 188.872 368.113 189.152 367.921 189.512C367.729 189.872 367.633 190.284 367.633 190.748V190.88C367.633 191.36 367.737 191.784 367.945 192.152C368.161 192.512 368.457 192.796 368.833 193.004C369.217 193.204 369.653 193.304 370.141 193.304C370.525 193.304 370.881 193.236 371.209 193.1C371.545 192.964 371.833 192.756 372.073 192.476L372.553 193.028C372.273 193.364 371.921 193.62 371.497 193.796C371.081 193.972 370.621 194.06 370.117 194.06ZM373.554 193.988L373.614 193.256C373.67 193.264 373.722 193.276 373.77 193.292C373.826 193.3 373.874 193.304 373.914 193.304C374.17 193.304 374.374 193.208 374.526 193.016C374.686 192.824 374.806 192.568 374.886 192.248C374.966 191.928 375.022 191.568 375.054 191.168C375.086 190.76 375.114 190.352 375.138 189.944L375.246 187.7H379.866V194H379.014V188.192L379.23 188.444H375.798L376.002 188.18L375.906 190.004C375.882 190.548 375.838 191.068 375.774 191.564C375.718 192.06 375.626 192.496 375.498 192.872C375.378 193.248 375.21 193.544 374.994 193.76C374.778 193.968 374.502 194.072 374.166 194.072C374.07 194.072 373.97 194.064 373.866 194.048C373.77 194.032 373.666 194.012 373.554 193.988ZM384.88 194.06C384.272 194.06 383.724 193.924 383.236 193.652C382.756 193.372 382.376 192.992 382.096 192.512C381.816 192.024 381.676 191.468 381.676 190.844C381.676 190.212 381.816 189.656 382.096 189.176C382.376 188.696 382.756 188.32 383.236 188.048C383.716 187.776 384.264 187.64 384.88 187.64C385.504 187.64 386.056 187.776 386.536 188.048C387.024 188.32 387.404 188.696 387.676 189.176C387.956 189.656 388.096 190.212 388.096 190.844C388.096 191.468 387.956 192.024 387.676 192.512C387.404 192.992 387.024 193.372 386.536 193.652C386.048 193.924 385.496 194.06 384.88 194.06ZM384.88 193.304C385.336 193.304 385.74 193.204 386.092 193.004C386.444 192.796 386.72 192.508 386.92 192.14C387.128 191.764 387.232 191.332 387.232 190.844C387.232 190.348 387.128 189.916 386.92 189.548C386.72 189.18 386.444 188.896 386.092 188.696C385.74 188.488 385.34 188.384 384.892 188.384C384.444 188.384 384.044 188.488 383.692 188.696C383.34 188.896 383.06 189.18 382.852 189.548C382.644 189.916 382.54 190.348 382.54 190.844C382.54 191.332 382.644 191.764 382.852 192.14C383.06 192.508 383.34 192.796 383.692 193.004C384.044 193.204 384.44 193.304 384.88 193.304ZM389.917 194V187.7H392.701C393.413 187.7 393.973 187.836 394.381 188.108C394.797 188.38 395.005 188.78 395.005 189.308C395.005 189.82 394.809 190.216 394.417 190.496C394.025 190.768 393.509 190.904 392.869 190.904L393.037 190.652C393.789 190.652 394.341 190.792 394.693 191.072C395.045 191.352 395.221 191.756 395.221 192.284C395.221 192.828 395.021 193.252 394.621 193.556C394.229 193.852 393.617 194 392.785 194H389.917ZM390.745 193.328H392.749C393.285 193.328 393.689 193.244 393.961 193.076C394.241 192.9 394.381 192.62 394.381 192.236C394.381 191.852 394.257 191.572 394.009 191.396C393.761 191.22 393.369 191.132 392.833 191.132H390.745V193.328ZM390.745 190.496H392.641C393.129 190.496 393.501 190.404 393.757 190.22C394.021 190.036 394.153 189.768 394.153 189.416C394.153 189.064 394.021 188.8 393.757 188.624C393.501 188.448 393.129 188.36 392.641 188.36H390.745V190.496ZM401.838 194L399.246 190.88L399.954 190.46L402.846 194H401.838ZM397.218 194V187.7H398.07V194H397.218ZM397.806 191.192V190.46H399.834V191.192H397.806ZM400.026 190.94L399.234 190.82L401.742 187.7H402.666L400.026 190.94ZM407.985 194V192.608L407.949 192.38V190.052C407.949 189.516 407.797 189.104 407.493 188.816C407.197 188.528 406.753 188.384 406.161 188.384C405.753 188.384 405.365 188.452 404.997 188.588C404.629 188.724 404.317 188.904 404.061 189.128L403.677 188.492C403.997 188.22 404.381 188.012 404.829 187.868C405.277 187.716 405.749 187.64 406.245 187.64C407.061 187.64 407.689 187.844 408.129 188.252C408.577 188.652 408.801 189.264 408.801 190.088V194H407.985ZM405.813 194.06C405.341 194.06 404.929 193.984 404.577 193.832C404.233 193.672 403.969 193.456 403.785 193.184C403.601 192.904 403.509 192.584 403.509 192.224C403.509 191.896 403.585 191.6 403.737 191.336C403.897 191.064 404.153 190.848 404.505 190.688C404.865 190.52 405.345 190.436 405.945 190.436H408.117V191.072H405.969C405.361 191.072 404.937 191.18 404.697 191.396C404.465 191.612 404.349 191.88 404.349 192.2C404.349 192.56 404.489 192.848 404.769 193.064C405.049 193.28 405.441 193.388 405.945 193.388C406.425 193.388 406.837 193.28 407.181 193.064C407.533 192.84 407.789 192.52 407.949 192.104L408.141 192.692C407.981 193.108 407.701 193.44 407.301 193.688C406.909 193.936 406.413 194.06 405.813 194.06Z" fill="white"/>
<path d="M692.625 457V448.6H698.769V449.356H693.501V452.104H696.249C697.241 452.104 697.993 452.308 698.505 452.716C699.025 453.116 699.285 453.708 699.285 454.492C699.285 455.3 699.005 455.92 698.445 456.352C697.893 456.784 697.097 457 696.057 457H692.625ZM693.501 456.292H696.045C696.821 456.292 697.405 456.144 697.797 455.848C698.197 455.544 698.397 455.104 698.397 454.528C698.397 453.384 697.613 452.812 696.045 452.812H693.501V456.292ZM705.04 457V455.608L705.004 455.38V453.052C705.004 452.516 704.852 452.104 704.548 451.816C704.252 451.528 703.808 451.384 703.216 451.384C702.808 451.384 702.42 451.452 702.052 451.588C701.684 451.724 701.372 451.904 701.116 452.128L700.732 451.492C701.052 451.22 701.436 451.012 701.884 450.868C702.332 450.716 702.804 450.64 703.3 450.64C704.116 450.64 704.744 450.844 705.184 451.252C705.632 451.652 705.856 452.264 705.856 453.088V457H705.04ZM702.868 457.06C702.396 457.06 701.984 456.984 701.632 456.832C701.288 456.672 701.024 456.456 700.84 456.184C700.656 455.904 700.564 455.584 700.564 455.224C700.564 454.896 700.64 454.6 700.792 454.336C700.952 454.064 701.208 453.848 701.56 453.688C701.92 453.52 702.4 453.436 703 453.436H705.172V454.072H703.024C702.416 454.072 701.992 454.18 701.752 454.396C701.52 454.612 701.404 454.88 701.404 455.2C701.404 455.56 701.544 455.848 701.824 456.064C702.104 456.28 702.496 456.388 703 456.388C703.48 456.388 703.892 456.28 704.236 456.064C704.588 455.84 704.844 455.52 705.004 455.104L705.196 455.692C705.036 456.108 704.756 456.44 704.356 456.688C703.964 456.936 703.468 457.06 702.868 457.06ZM709.324 457V451.216L709.54 451.444H706.936V450.7H712.564V451.444H709.96L710.176 451.216V457H709.324ZM719.94 457V450.7H720.792V457H719.94ZM716.448 452.92C717.24 452.928 717.844 453.104 718.26 453.448C718.676 453.792 718.884 454.288 718.884 454.936C718.884 455.608 718.66 456.124 718.212 456.484C717.764 456.844 717.124 457.02 716.292 457.012L713.796 457V450.7H714.648V452.896L716.448 452.92ZM716.232 456.364C716.824 456.372 717.268 456.256 717.564 456.016C717.868 455.768 718.02 455.408 718.02 454.936C718.02 454.464 717.872 454.12 717.576 453.904C717.28 453.68 716.832 453.564 716.232 453.556L714.648 453.532V456.34L716.232 456.364ZM726.47 457.06C725.926 457.06 725.434 456.936 724.994 456.688C724.554 456.432 724.202 456.068 723.938 455.596C723.682 455.116 723.554 454.532 723.554 453.844C723.554 453.156 723.682 452.576 723.938 452.104C724.194 451.624 724.542 451.26 724.982 451.012C725.422 450.764 725.918 450.64 726.47 450.64C727.07 450.64 727.606 450.776 728.078 451.048C728.558 451.312 728.934 451.688 729.206 452.176C729.478 452.656 729.614 453.212 729.614 453.844C729.614 454.484 729.478 455.044 729.206 455.524C728.934 456.004 728.558 456.38 728.078 456.652C727.606 456.924 727.07 457.06 726.47 457.06ZM723.218 459.328V450.7H724.034V452.596L723.95 453.856L724.07 455.128V459.328H723.218ZM726.41 456.304C726.858 456.304 727.258 456.204 727.61 456.004C727.962 455.796 728.242 455.508 728.45 455.14C728.658 454.764 728.762 454.332 728.762 453.844C728.762 453.356 728.658 452.928 728.45 452.56C728.242 452.192 727.962 451.904 727.61 451.696C727.258 451.488 726.858 451.384 726.41 451.384C725.962 451.384 725.558 451.488 725.198 451.696C724.846 451.904 724.566 452.192 724.358 452.56C724.158 452.928 724.058 453.356 724.058 453.844C724.058 454.332 724.158 454.764 724.358 455.14C724.566 455.508 724.846 455.796 725.198 456.004C725.558 456.204 725.962 456.304 726.41 456.304ZM734.036 457.06C733.428 457.06 732.88 456.924 732.392 456.652C731.912 456.372 731.532 455.992 731.252 455.512C730.972 455.024 730.832 454.468 730.832 453.844C730.832 453.212 730.972 452.656 731.252 452.176C731.532 451.696 731.912 451.32 732.392 451.048C732.872 450.776 733.42 450.64 734.036 450.64C734.66 450.64 735.212 450.776 735.692 451.048C736.18 451.32 736.56 451.696 736.832 452.176C737.112 452.656 737.252 453.212 737.252 453.844C737.252 454.468 737.112 455.024 736.832 455.512C736.56 455.992 736.18 456.372 735.692 456.652C735.204 456.924 734.652 457.06 734.036 457.06ZM734.036 456.304C734.492 456.304 734.896 456.204 735.248 456.004C735.6 455.796 735.876 455.508 736.076 455.14C736.284 454.764 736.388 454.332 736.388 453.844C736.388 453.348 736.284 452.916 736.076 452.548C735.876 452.18 735.6 451.896 735.248 451.696C734.896 451.488 734.496 451.384 734.048 451.384C733.6 451.384 733.2 451.488 732.848 451.696C732.496 451.896 732.216 452.18 732.008 452.548C731.8 452.916 731.696 453.348 731.696 453.844C731.696 454.332 731.8 454.764 732.008 455.14C732.216 455.508 732.496 455.796 732.848 456.004C733.2 456.204 733.596 456.304 734.036 456.304ZM739.073 457V450.7H741.857C742.569 450.7 743.129 450.836 743.537 451.108C743.953 451.38 744.161 451.78 744.161 452.308C744.161 452.82 743.965 453.216 743.573 453.496C743.181 453.768 742.665 453.904 742.025 453.904L742.193 453.652C742.945 453.652 743.497 453.792 743.849 454.072C744.201 454.352 744.377 454.756 744.377 455.284C744.377 455.828 744.177 456.252 743.777 456.556C743.385 456.852 742.773 457 741.941 457H739.073ZM739.901 456.328H741.905C742.441 456.328 742.845 456.244 743.117 456.076C743.397 455.9 743.537 455.62 743.537 455.236C743.537 454.852 743.413 454.572 743.165 454.396C742.917 454.22 742.525 454.132 741.989 454.132H739.901V456.328ZM739.901 453.496H741.797C742.285 453.496 742.657 453.404 742.913 453.22C743.177 453.036 743.309 452.768 743.309 452.416C743.309 452.064 743.177 451.8 742.913 451.624C742.657 451.448 742.285 451.36 741.797 451.36H739.901V453.496ZM748.966 457.06C748.358 457.06 747.81 456.924 747.322 456.652C746.842 456.372 746.462 455.992 746.182 455.512C745.902 455.024 745.762 454.468 745.762 453.844C745.762 453.212 745.902 452.656 746.182 452.176C746.462 451.696 746.842 451.32 747.322 451.048C747.802 450.776 748.35 450.64 748.966 450.64C749.59 450.64 750.142 450.776 750.622 451.048C751.11 451.32 751.49 451.696 751.762 452.176C752.042 452.656 752.182 453.212 752.182 453.844C752.182 454.468 752.042 455.024 751.762 455.512C751.49 455.992 751.11 456.372 750.622 456.652C750.134 456.924 749.582 457.06 748.966 457.06ZM748.966 456.304C749.422 456.304 749.826 456.204 750.178 456.004C750.53 455.796 750.806 455.508 751.006 455.14C751.214 454.764 751.318 454.332 751.318 453.844C751.318 453.348 751.214 452.916 751.006 452.548C750.806 452.18 750.53 451.896 750.178 451.696C749.826 451.488 749.426 451.384 748.978 451.384C748.53 451.384 748.13 451.488 747.778 451.696C747.426 451.896 747.146 452.18 746.938 452.548C746.73 452.916 746.626 453.348 746.626 453.844C746.626 454.332 746.73 454.764 746.938 455.14C747.146 455.508 747.426 455.796 747.778 456.004C748.13 456.204 748.526 456.304 748.966 456.304Z" fill="white"/>
<defs>
<radialGradient id="paint0_radial_20_2" cx="0" cy="0" r="1" gradientUnits="userSpaceOnUse" gradientTransform="translate(486.5 670.5) rotate(149.516) scale(480.985 884.998)">
<stop stop-color="#FFA800"/>
<stop offset="0.766833" stop-color="#B97A00" stop-opacity="0.8"/>
<stop offset="0.901141" stop-color="#996500" stop-opacity="0"/>
</radialGradient>
</defs>
</svg>
