<svg width="1031" height="916" viewBox="0 0 1031 916" fill="none" xmlns="http://www.w3.org/2000/svg">
<path d="M699 683.5L708 686.5L713 694L725.5 718.5L743 752L795 797L818 852C818 852 818 874.246 818 888.5V931L822.5 986L832 1004.5L844.5 1017M699 683.5L684.5 647.5L686.5 608.5L688 570L701 538L709.5 517L719 502.5L740 469.5L761 424.5L791 363.5L818.5 323.5L839 297L863.5 265.5L879 248L889.5 240.5L907.5 218.5L942.5 170L1028.5 47M699 683.5L697.88 685.5M697.88 685.5L692 696L686.5 710L682.5 729.5L679 745.5L677 756.5L667 776.5L656 797L642 822L629.5 844L604 889L593.5 907L483 852L461.5 883.5L448 927.5L435.5 979.5M697.88 685.5L674 687L663 686.5L645 681.5L610 671.5L588.5 662L567.5 652.5L543 641L532 635L521.5 633L504.5 629L484 624L466 619L456.5 616.5L445 611L430 604L425.5 601.5L414 602.5L397.5 604.5L390 599L377.5 585.5L365.5 573L353 564.5L337 554L319 542L304.5 532.5L289.5 526L265.5 513.5L248 504.5L239.5 497.5L223.5 487L205.5 476.5L186.5 467L182 464.5L169.5 453L165 441.5L161 428L139 427.5H115.5L86 426.5H83L72 421L65 415.5L56 406L47.5 397L42 385.5L37 383L26 381L18.5 379L10 370.5L13 355.5L17.5 339L27.5 305L35 286.5L46 261L59.5 237L74 207L77.5 197.5L78.5 187.5L73 179.5L59.5 169L75.5 153.5L82 147.5L75.5 138L74 129L78.5 116.5L88.5 109L100 104L111 101L122.5 99L136.5 101L147.5 105.5L157 114.5L164.5 126L172 140L177 153.5L181 169L184 176L188.5 181L195 185L217 192L276.5 213.5L281 214L320 210L335.5 205.5L345 197L361 188L383 183.5L412.5 177L416 175C416 175 418.133 171.038 419.5 168.5L444 129L482.5 70L524.5 17.5L550.5 2" stroke="url(#paint0_radial_20_2)" stroke-width="4"/>
<path d="M417 591.5L413 600.5L403.5 601.5H395.5L388.5 595L379 584L389 577L390.5 571.5L392.5 565L401 553.5L405 554.5L411 556.5L422.5 561.5L426.5 562.5L427.5 568L441.5 575L442.5 580L433 589L426 586L422.5 593.5L417 591.5Z" fill="black" fill-opacity="0.49" stroke="black"/>
<path d="M399.974 546.375C399.937 545.953 399.918 545.526 399.918 545.094C399.919 537.31 406 531 413.5 531C421.001 531 427.082 537.31 427.082 545.094C427.082 545.526 427.063 545.953 427.027 546.375H427.082C427.082 554.077 413.5 572 413.5 572C413.5 572 399.919 554.12 399.919 546.375H399.974ZM413.5 548.938C416.415 549.02 418.845 546.727 418.933 543.812C418.845 540.898 416.415 538.606 413.5 538.688C410.586 538.606 408.156 540.898 408.068 543.812C408.156 546.727 410.586 549.02 413.5 548.938Z" fill="#FF0000"/>
<path d="M439.866 555.592V550.444H436.83L436.758 551.848C436.742 552.272 436.714 552.688 436.674 553.096C436.642 553.504 436.582 553.88 436.494 554.224C436.414 554.56 436.298 554.836 436.146 555.052C435.994 555.26 435.798 555.38 435.558 555.412L434.706 555.256C434.954 555.264 435.158 555.176 435.318 554.992C435.478 554.8 435.602 554.54 435.69 554.212C435.778 553.884 435.842 553.512 435.882 553.096C435.922 552.672 435.954 552.24 435.978 551.8L436.062 549.7H440.718V555.592H439.866ZM434.442 557.524V555.256H441.702V557.524H440.898V556H435.246V557.524H434.442ZM446.062 556.06C445.406 556.06 444.83 555.924 444.334 555.652C443.838 555.372 443.45 554.992 443.17 554.512C442.89 554.024 442.75 553.468 442.75 552.844C442.75 552.22 442.882 551.668 443.146 551.188C443.418 550.708 443.786 550.332 444.25 550.06C444.722 549.78 445.25 549.64 445.834 549.64C446.426 549.64 446.95 549.776 447.406 550.048C447.87 550.312 448.234 550.688 448.498 551.176C448.762 551.656 448.894 552.212 448.894 552.844C448.894 552.884 448.89 552.928 448.882 552.976C448.882 553.016 448.882 553.06 448.882 553.108H443.398V552.472H448.426L448.09 552.724C448.09 552.268 447.99 551.864 447.79 551.512C447.598 551.152 447.334 550.872 446.998 550.672C446.662 550.472 446.274 550.372 445.834 550.372C445.402 550.372 445.014 550.472 444.67 550.672C444.326 550.872 444.058 551.152 443.866 551.512C443.674 551.872 443.578 552.284 443.578 552.748V552.88C443.578 553.36 443.682 553.784 443.89 554.152C444.106 554.512 444.402 554.796 444.778 555.004C445.162 555.204 445.598 555.304 446.086 555.304C446.47 555.304 446.826 555.236 447.154 555.1C447.49 554.964 447.778 554.756 448.018 554.476L448.498 555.028C448.218 555.364 447.866 555.62 447.442 555.796C447.026 555.972 446.566 556.06 446.062 556.06ZM454.032 556.06C453.488 556.06 452.996 555.936 452.556 555.688C452.116 555.432 451.764 555.068 451.5 554.596C451.244 554.116 451.116 553.532 451.116 552.844C451.116 552.156 451.244 551.576 451.5 551.104C451.756 550.624 452.104 550.26 452.544 550.012C452.984 549.764 453.48 549.64 454.032 549.64C454.632 549.64 455.168 549.776 455.64 550.048C456.12 550.312 456.496 550.688 456.768 551.176C457.04 551.656 457.176 552.212 457.176 552.844C457.176 553.484 457.04 554.044 456.768 554.524C456.496 555.004 456.12 555.38 455.64 555.652C455.168 555.924 454.632 556.06 454.032 556.06ZM450.78 558.328V549.7H451.596V551.596L451.512 552.856L451.632 554.128V558.328H450.78ZM453.972 555.304C454.42 555.304 454.82 555.204 455.172 555.004C455.524 554.796 455.804 554.508 456.012 554.14C456.22 553.764 456.324 553.332 456.324 552.844C456.324 552.356 456.22 551.928 456.012 551.56C455.804 551.192 455.524 550.904 455.172 550.696C454.82 550.488 454.42 550.384 453.972 550.384C453.524 550.384 453.12 550.488 452.76 550.696C452.408 550.904 452.128 551.192 451.92 551.56C451.72 551.928 451.62 552.356 451.62 552.844C451.62 553.332 451.72 553.764 451.92 554.14C452.128 554.508 452.408 554.796 452.76 555.004C453.12 555.204 453.524 555.304 453.972 555.304ZM461.707 556.06C461.051 556.06 460.475 555.924 459.979 555.652C459.483 555.372 459.095 554.992 458.815 554.512C458.535 554.024 458.395 553.468 458.395 552.844C458.395 552.22 458.527 551.668 458.791 551.188C459.063 550.708 459.431 550.332 459.895 550.06C460.367 549.78 460.895 549.64 461.479 549.64C462.071 549.64 462.595 549.776 463.051 550.048C463.515 550.312 463.879 550.688 464.143 551.176C464.407 551.656 464.539 552.212 464.539 552.844C464.539 552.884 464.535 552.928 464.527 552.976C464.527 553.016 464.527 553.06 464.527 553.108H459.043V552.472H464.071L463.735 552.724C463.735 552.268 463.635 551.864 463.435 551.512C463.243 551.152 462.979 550.872 462.643 550.672C462.307 550.472 461.919 550.372 461.479 550.372C461.047 550.372 460.659 550.472 460.315 550.672C459.971 550.872 459.703 551.152 459.511 551.512C459.319 551.872 459.223 552.284 459.223 552.748V552.88C459.223 553.36 459.327 553.784 459.535 554.152C459.751 554.512 460.047 554.796 460.423 555.004C460.807 555.204 461.243 555.304 461.731 555.304C462.115 555.304 462.471 555.236 462.799 555.1C463.135 554.964 463.423 554.756 463.663 554.476L464.143 555.028C463.863 555.364 463.511 555.62 463.087 555.796C462.671 555.972 462.211 556.06 461.707 556.06ZM466.425 556V549.7H469.209C469.921 549.7 470.481 549.836 470.889 550.108C471.305 550.38 471.513 550.78 471.513 551.308C471.513 551.82 471.317 552.216 470.925 552.496C470.533 552.768 470.017 552.904 469.377 552.904L469.545 552.652C470.297 552.652 470.849 552.792 471.201 553.072C471.553 553.352 471.729 553.756 471.729 554.284C471.729 554.828 471.529 555.252 471.129 555.556C470.737 555.852 470.125 556 469.293 556H466.425ZM467.253 555.328H469.257C469.793 555.328 470.197 555.244 470.469 555.076C470.749 554.9 470.889 554.62 470.889 554.236C470.889 553.852 470.765 553.572 470.517 553.396C470.269 553.22 469.877 553.132 469.341 553.132H467.253V555.328ZM467.253 552.496H469.149C469.637 552.496 470.009 552.404 470.265 552.22C470.529 552.036 470.661 551.768 470.661 551.416C470.661 551.064 470.529 550.8 470.265 550.624C470.009 550.448 469.637 550.36 469.149 550.36H467.253V552.496ZM473.726 556V549.7H474.578V552.484H478.55V549.7H479.402V556H478.55V553.216H474.578V556H473.726ZM485.891 556V553.732L486.047 553.912H483.911C483.103 553.912 482.471 553.736 482.015 553.384C481.559 553.032 481.331 552.52 481.331 551.848C481.331 551.128 481.575 550.592 482.063 550.24C482.551 549.88 483.203 549.7 484.019 549.7H486.671V556H485.891ZM481.283 556L483.011 553.576H483.899L482.207 556H481.283ZM485.891 553.48V550.192L486.047 550.444H484.043C483.459 550.444 483.003 550.556 482.675 550.78C482.355 551.004 482.195 551.368 482.195 551.872C482.195 552.808 482.791 553.276 483.983 553.276H486.047L485.891 553.48ZM492.445 556V547.6H493.177L497.017 554.152H496.633L500.437 547.6H501.169V556H500.317V548.932H500.521L497.017 554.932H496.597L493.069 548.932H493.297V556H492.445ZM503.796 556V549.7H504.648V554.704L508.86 549.7H509.616V556H508.764V550.984L504.564 556H503.796ZM511.026 556L513.69 552.544L513.678 552.964L511.146 549.7H512.106L514.182 552.4L513.822 552.388L515.898 549.7H516.834L514.278 553L514.29 552.544L516.978 556H516.006L513.81 553.12L514.146 553.168L511.986 556H511.026ZM522.169 556V554.608L522.133 554.38V552.052C522.133 551.516 521.981 551.104 521.677 550.816C521.381 550.528 520.937 550.384 520.345 550.384C519.937 550.384 519.549 550.452 519.181 550.588C518.813 550.724 518.501 550.904 518.245 551.128L517.861 550.492C518.181 550.22 518.565 550.012 519.013 549.868C519.461 549.716 519.933 549.64 520.429 549.64C521.245 549.64 521.873 549.844 522.313 550.252C522.761 550.652 522.985 551.264 522.985 552.088V556H522.169ZM519.997 556.06C519.525 556.06 519.113 555.984 518.761 555.832C518.417 555.672 518.153 555.456 517.969 555.184C517.785 554.904 517.693 554.584 517.693 554.224C517.693 553.896 517.769 553.6 517.921 553.336C518.081 553.064 518.337 552.848 518.689 552.688C519.049 552.52 519.529 552.436 520.129 552.436H522.301V553.072H520.153C519.545 553.072 519.121 553.18 518.881 553.396C518.649 553.612 518.533 553.88 518.533 554.2C518.533 554.56 518.673 554.848 518.953 555.064C519.233 555.28 519.625 555.388 520.129 555.388C520.609 555.388 521.021 555.28 521.365 555.064C521.717 554.84 521.973 554.52 522.133 554.104L522.325 554.692C522.165 555.108 521.885 555.44 521.485 555.688C521.093 555.936 520.597 556.06 519.997 556.06ZM525.253 556V549.7H526.105V554.704L530.317 549.7H531.073V556H530.221V550.984L526.021 556H525.253ZM528.109 548.788C527.581 548.788 527.153 548.656 526.825 548.392C526.505 548.12 526.337 547.732 526.321 547.228H526.933C526.941 547.548 527.053 547.8 527.269 547.984C527.485 548.168 527.765 548.26 528.109 548.26C528.453 548.26 528.733 548.168 528.949 547.984C529.173 547.8 529.289 547.548 529.297 547.228H529.909C529.901 547.732 529.733 548.12 529.405 548.392C529.077 548.656 528.645 548.788 528.109 548.788ZM532.363 555.988L532.423 555.256C532.479 555.264 532.531 555.276 532.579 555.292C532.635 555.3 532.683 555.304 532.723 555.304C532.979 555.304 533.183 555.208 533.335 555.016C533.495 554.824 533.615 554.568 533.695 554.248C533.775 553.928 533.831 553.568 533.863 553.168C533.895 552.76 533.923 552.352 533.947 551.944L534.055 549.7H538.675V556H537.823V550.192L538.039 550.444H534.607L534.811 550.18L534.715 552.004C534.691 552.548 534.647 553.068 534.583 553.564C534.527 554.06 534.435 554.496 534.307 554.872C534.187 555.248 534.019 555.544 533.803 555.76C533.587 555.968 533.311 556.072 532.975 556.072C532.879 556.072 532.779 556.064 532.675 556.048C532.579 556.032 532.475 556.012 532.363 555.988ZM543.689 556.06C543.081 556.06 542.533 555.924 542.045 555.652C541.565 555.372 541.185 554.992 540.905 554.512C540.625 554.024 540.485 553.468 540.485 552.844C540.485 552.212 540.625 551.656 540.905 551.176C541.185 550.696 541.565 550.32 542.045 550.048C542.525 549.776 543.073 549.64 543.689 549.64C544.313 549.64 544.865 549.776 545.345 550.048C545.833 550.32 546.213 550.696 546.485 551.176C546.765 551.656 546.905 552.212 546.905 552.844C546.905 553.468 546.765 554.024 546.485 554.512C546.213 554.992 545.833 555.372 545.345 555.652C544.857 555.924 544.305 556.06 543.689 556.06ZM543.689 555.304C544.145 555.304 544.549 555.204 544.901 555.004C545.253 554.796 545.529 554.508 545.729 554.14C545.937 553.764 546.041 553.332 546.041 552.844C546.041 552.348 545.937 551.916 545.729 551.548C545.529 551.18 545.253 550.896 544.901 550.696C544.549 550.488 544.149 550.384 543.701 550.384C543.253 550.384 542.853 550.488 542.501 550.696C542.149 550.896 541.869 551.18 541.661 551.548C541.453 551.916 541.349 552.348 541.349 552.844C541.349 553.332 541.453 553.764 541.661 554.14C541.869 554.508 542.149 554.796 542.501 555.004C542.853 555.204 543.249 555.304 543.689 555.304ZM548.726 556V549.7H551.51C552.222 549.7 552.782 549.836 553.19 550.108C553.606 550.38 553.814 550.78 553.814 551.308C553.814 551.82 553.618 552.216 553.226 552.496C552.834 552.768 552.318 552.904 551.678 552.904L551.846 552.652C552.598 552.652 553.15 552.792 553.502 553.072C553.854 553.352 554.03 553.756 554.03 554.284C554.03 554.828 553.83 555.252 553.43 555.556C553.038 555.852 552.426 556 551.594 556H548.726ZM549.554 555.328H551.558C552.094 555.328 552.498 555.244 552.77 555.076C553.05 554.9 553.19 554.62 553.19 554.236C553.19 553.852 553.066 553.572 552.818 553.396C552.57 553.22 552.178 553.132 551.642 553.132H549.554V555.328ZM549.554 552.496H551.45C551.938 552.496 552.31 552.404 552.566 552.22C552.83 552.036 552.962 551.768 552.962 551.416C552.962 551.064 552.83 550.8 552.566 550.624C552.31 550.448 551.938 550.36 551.45 550.36H549.554V552.496ZM560.646 556L558.054 552.88L558.762 552.46L561.654 556H560.646ZM556.026 556V549.7H556.878V556H556.026ZM556.614 553.192V552.46H558.642V553.192H556.614ZM558.834 552.94L558.042 552.82L560.55 549.7H561.474L558.834 552.94ZM566.794 556V554.608L566.758 554.38V552.052C566.758 551.516 566.606 551.104 566.302 550.816C566.006 550.528 565.562 550.384 564.97 550.384C564.562 550.384 564.174 550.452 563.806 550.588C563.438 550.724 563.126 550.904 562.87 551.128L562.486 550.492C562.806 550.22 563.19 550.012 563.638 549.868C564.086 549.716 564.558 549.64 565.054 549.64C565.87 549.64 566.498 549.844 566.938 550.252C567.386 550.652 567.61 551.264 567.61 552.088V556H566.794ZM564.622 556.06C564.15 556.06 563.738 555.984 563.386 555.832C563.042 555.672 562.778 555.456 562.594 555.184C562.41 554.904 562.318 554.584 562.318 554.224C562.318 553.896 562.394 553.6 562.546 553.336C562.706 553.064 562.962 552.848 563.314 552.688C563.674 552.52 564.154 552.436 564.754 552.436H566.926V553.072H564.778C564.17 553.072 563.746 553.18 563.506 553.396C563.274 553.612 563.158 553.88 563.158 554.2C563.158 554.56 563.298 554.848 563.578 555.064C563.858 555.28 564.25 555.388 564.754 555.388C565.234 555.388 565.646 555.28 565.99 555.064C566.342 554.84 566.598 554.52 566.758 554.104L566.95 554.692C566.79 555.108 566.51 555.44 566.11 555.688C565.718 555.936 565.222 556.06 564.622 556.06Z" fill="white"/>
<path d="M694.598 730V721.6H695.33L699.17 728.152H698.786L702.59 721.6H703.322V730H702.47V722.932H702.674L699.17 728.932H698.75L695.222 722.932H695.45V730H694.598ZM705.948 730V723.7H706.8V728.704L711.012 723.7H711.768V730H710.916V724.984L706.716 730H705.948ZM713.178 730L715.842 726.544L715.83 726.964L713.298 723.7H714.258L716.334 726.4L715.974 726.388L718.05 723.7H718.986L716.43 727L716.442 726.544L719.13 730H718.158L715.962 727.12L716.298 727.168L714.138 730H713.178ZM724.321 730V728.608L724.285 728.38V726.052C724.285 725.516 724.133 725.104 723.829 724.816C723.533 724.528 723.089 724.384 722.497 724.384C722.089 724.384 721.701 724.452 721.333 724.588C720.965 724.724 720.653 724.904 720.397 725.128L720.013 724.492C720.333 724.22 720.717 724.012 721.165 723.868C721.613 723.716 722.085 723.64 722.581 723.64C723.397 723.64 724.025 723.844 724.465 724.252C724.913 724.652 725.137 725.264 725.137 726.088V730H724.321ZM722.149 730.06C721.677 730.06 721.265 729.984 720.913 729.832C720.569 729.672 720.305 729.456 720.121 729.184C719.937 728.904 719.845 728.584 719.845 728.224C719.845 727.896 719.921 727.6 720.073 727.336C720.233 727.064 720.489 726.848 720.841 726.688C721.201 726.52 721.681 726.436 722.281 726.436H724.453V727.072H722.305C721.697 727.072 721.273 727.18 721.033 727.396C720.801 727.612 720.685 727.88 720.685 728.2C720.685 728.56 720.825 728.848 721.105 729.064C721.385 729.28 721.777 729.388 722.281 729.388C722.761 729.388 723.173 729.28 723.517 729.064C723.869 728.84 724.125 728.52 724.285 728.104L724.477 728.692C724.317 729.108 724.037 729.44 723.637 729.688C723.245 729.936 722.749 730.06 722.149 730.06ZM727.405 730V723.7H728.257V728.704L732.469 723.7H733.225V730H732.373V724.984L728.173 730H727.405ZM730.261 722.788C729.733 722.788 729.305 722.656 728.977 722.392C728.657 722.12 728.489 721.732 728.473 721.228H729.085C729.093 721.548 729.205 721.8 729.421 721.984C729.637 722.168 729.917 722.26 730.261 722.26C730.605 722.26 730.885 722.168 731.101 721.984C731.325 721.8 731.441 721.548 731.449 721.228H732.061C732.053 721.732 731.885 722.12 731.557 722.392C731.229 722.656 730.797 722.788 730.261 722.788ZM734.515 729.988L734.575 729.256C734.631 729.264 734.683 729.276 734.731 729.292C734.787 729.3 734.835 729.304 734.875 729.304C735.131 729.304 735.335 729.208 735.487 729.016C735.647 728.824 735.767 728.568 735.847 728.248C735.927 727.928 735.983 727.568 736.015 727.168C736.047 726.76 736.075 726.352 736.099 725.944L736.207 723.7H740.827V730H739.975V724.192L740.191 724.444H736.759L736.963 724.18L736.867 726.004C736.843 726.548 736.799 727.068 736.735 727.564C736.679 728.06 736.587 728.496 736.459 728.872C736.339 729.248 736.171 729.544 735.955 729.76C735.739 729.968 735.463 730.072 735.127 730.072C735.031 730.072 734.931 730.064 734.827 730.048C734.731 730.032 734.627 730.012 734.515 729.988ZM745.841 730.06C745.233 730.06 744.685 729.924 744.197 729.652C743.717 729.372 743.337 728.992 743.057 728.512C742.777 728.024 742.637 727.468 742.637 726.844C742.637 726.212 742.777 725.656 743.057 725.176C743.337 724.696 743.717 724.32 744.197 724.048C744.677 723.776 745.225 723.64 745.841 723.64C746.465 723.64 747.017 723.776 747.497 724.048C747.985 724.32 748.365 724.696 748.637 725.176C748.917 725.656 749.057 726.212 749.057 726.844C749.057 727.468 748.917 728.024 748.637 728.512C748.365 728.992 747.985 729.372 747.497 729.652C747.009 729.924 746.457 730.06 745.841 730.06ZM745.841 729.304C746.297 729.304 746.701 729.204 747.053 729.004C747.405 728.796 747.681 728.508 747.881 728.14C748.089 727.764 748.193 727.332 748.193 726.844C748.193 726.348 748.089 725.916 747.881 725.548C747.681 725.18 747.405 724.896 747.053 724.696C746.701 724.488 746.301 724.384 745.853 724.384C745.405 724.384 745.005 724.488 744.653 724.696C744.301 724.896 744.021 725.18 743.813 725.548C743.605 725.916 743.501 726.348 743.501 726.844C743.501 727.332 743.605 727.764 743.813 728.14C744.021 728.508 744.301 728.796 744.653 729.004C745.005 729.204 745.401 729.304 745.841 729.304ZM750.878 730V723.7H753.662C754.374 723.7 754.934 723.836 755.342 724.108C755.758 724.38 755.966 724.78 755.966 725.308C755.966 725.82 755.77 726.216 755.378 726.496C754.986 726.768 754.47 726.904 753.83 726.904L753.998 726.652C754.75 726.652 755.302 726.792 755.654 727.072C756.006 727.352 756.182 727.756 756.182 728.284C756.182 728.828 755.982 729.252 755.582 729.556C755.19 729.852 754.578 730 753.746 730H750.878ZM751.706 729.328H753.71C754.246 729.328 754.65 729.244 754.922 729.076C755.202 728.9 755.342 728.62 755.342 728.236C755.342 727.852 755.218 727.572 754.97 727.396C754.722 727.22 754.33 727.132 753.794 727.132H751.706V729.328ZM751.706 726.496H753.602C754.09 726.496 754.462 726.404 754.718 726.22C754.982 726.036 755.114 725.768 755.114 725.416C755.114 725.064 754.982 724.8 754.718 724.624C754.462 724.448 754.09 724.36 753.602 724.36H751.706V726.496ZM762.799 730L760.207 726.88L760.915 726.46L763.807 730H762.799ZM758.179 730V723.7H759.031V730H758.179ZM758.767 727.192V726.46H760.795V727.192H758.767ZM760.987 726.94L760.195 726.82L762.703 723.7H763.627L760.987 726.94ZM768.946 730V728.608L768.91 728.38V726.052C768.91 725.516 768.758 725.104 768.454 724.816C768.158 724.528 767.714 724.384 767.122 724.384C766.714 724.384 766.326 724.452 765.958 724.588C765.59 724.724 765.278 724.904 765.022 725.128L764.638 724.492C764.958 724.22 765.342 724.012 765.79 723.868C766.238 723.716 766.71 723.64 767.206 723.64C768.022 723.64 768.65 723.844 769.09 724.252C769.538 724.652 769.762 725.264 769.762 726.088V730H768.946ZM766.774 730.06C766.302 730.06 765.89 729.984 765.538 729.832C765.194 729.672 764.93 729.456 764.746 729.184C764.562 728.904 764.47 728.584 764.47 728.224C764.47 727.896 764.546 727.6 764.698 727.336C764.858 727.064 765.114 726.848 765.466 726.688C765.826 726.52 766.306 726.436 766.906 726.436H769.078V727.072H766.93C766.322 727.072 765.898 727.18 765.658 727.396C765.426 727.612 765.31 727.88 765.31 728.2C765.31 728.56 765.45 728.848 765.73 729.064C766.01 729.28 766.402 729.388 766.906 729.388C767.386 729.388 767.798 729.28 768.142 729.064C768.494 728.84 768.75 728.52 768.91 728.104L769.102 728.692C768.942 729.108 768.662 729.44 768.262 729.688C767.87 729.936 767.374 730.06 766.774 730.06Z" fill="white"/>
<path d="M165.527 437L162.299 432.812L163.019 432.38L166.547 437H165.527ZM159.779 437V428.6H160.643V437H159.779ZM160.379 433.148V432.368H163.007V433.148H160.379ZM163.091 432.896L162.275 432.752L165.407 428.6H166.367L163.091 432.896ZM167.884 437V430.7H168.736V435.704L172.948 430.7H173.704V437H172.852V431.984L168.652 437H167.884ZM179.398 437.06C178.854 437.06 178.362 436.936 177.922 436.688C177.482 436.432 177.13 436.068 176.866 435.596C176.61 435.116 176.482 434.532 176.482 433.844C176.482 433.156 176.61 432.576 176.866 432.104C177.122 431.624 177.47 431.26 177.91 431.012C178.35 430.764 178.846 430.64 179.398 430.64C179.998 430.64 180.534 430.776 181.006 431.048C181.486 431.312 181.862 431.688 182.134 432.176C182.406 432.656 182.542 433.212 182.542 433.844C182.542 434.484 182.406 435.044 182.134 435.524C181.862 436.004 181.486 436.38 181.006 436.652C180.534 436.924 179.998 437.06 179.398 437.06ZM176.146 439.328V430.7H176.962V432.596L176.878 433.856L176.998 435.128V439.328H176.146ZM179.338 436.304C179.786 436.304 180.186 436.204 180.538 436.004C180.89 435.796 181.17 435.508 181.378 435.14C181.586 434.764 181.69 434.332 181.69 433.844C181.69 433.356 181.586 432.928 181.378 432.56C181.17 432.192 180.89 431.904 180.538 431.696C180.186 431.488 179.786 431.384 179.338 431.384C178.89 431.384 178.486 431.488 178.126 431.696C177.774 431.904 177.494 432.192 177.286 432.56C177.086 432.928 176.986 433.356 176.986 433.844C176.986 434.332 177.086 434.764 177.286 435.14C177.494 435.508 177.774 435.796 178.126 436.004C178.486 436.204 178.89 436.304 179.338 436.304ZM184.372 437V430.7H185.224V433.412H187.144V434.192H185.224V437H184.372ZM189.796 437.06C189.196 437.06 188.656 436.924 188.176 436.652C187.704 436.372 187.332 435.992 187.06 435.512C186.788 435.024 186.652 434.468 186.652 433.844C186.652 433.212 186.788 432.656 187.06 432.176C187.332 431.696 187.704 431.32 188.176 431.048C188.656 430.776 189.196 430.64 189.796 430.64C190.396 430.64 190.932 430.776 191.404 431.048C191.876 431.32 192.248 431.696 192.52 432.176C192.792 432.656 192.928 433.212 192.928 433.844C192.928 434.468 192.792 435.024 192.52 435.512C192.248 435.992 191.876 436.372 191.404 436.652C190.932 436.924 190.396 437.06 189.796 437.06ZM189.796 436.316C190.236 436.316 190.628 436.212 190.972 436.004C191.316 435.796 191.588 435.508 191.788 435.14C191.988 434.764 192.088 434.332 192.088 433.844C192.088 433.348 191.988 432.916 191.788 432.548C191.588 432.18 191.316 431.896 190.972 431.696C190.628 431.488 190.236 431.384 189.796 431.384C189.364 431.384 188.972 431.488 188.62 431.696C188.276 431.896 188.004 432.18 187.804 432.548C187.604 432.916 187.504 433.348 187.504 433.844C187.504 434.332 187.604 434.764 187.804 435.14C188.004 435.508 188.276 435.796 188.62 436.004C188.972 436.212 189.364 436.316 189.796 436.316ZM198.895 436.256L198.703 436.484V430.7H199.555V436.484L199.327 436.256H202.843L202.615 436.484V430.7H203.467V437H194.755V430.7H195.607V436.484L195.391 436.256H198.895ZM210.508 437L207.916 433.88L208.624 433.46L211.516 437H210.508ZM205.888 437V430.7H206.74V437H205.888ZM206.476 434.192V433.46H208.504V434.192H206.476ZM208.696 433.94L207.904 433.82L210.412 430.7H211.336L208.696 433.94ZM212.86 437V430.7H213.712V435.704L217.924 430.7H218.68V437H217.828V431.984L213.628 437H212.86ZM221.122 437V430.7H221.974V433.484H225.946V430.7H226.798V437H225.946V434.216H221.974V437H221.122ZM231.812 437.06C231.204 437.06 230.656 436.924 230.168 436.652C229.688 436.372 229.308 435.992 229.028 435.512C228.748 435.024 228.608 434.468 228.608 433.844C228.608 433.212 228.748 432.656 229.028 432.176C229.308 431.696 229.688 431.32 230.168 431.048C230.648 430.776 231.196 430.64 231.812 430.64C232.436 430.64 232.988 430.776 233.468 431.048C233.956 431.32 234.336 431.696 234.608 432.176C234.888 432.656 235.028 433.212 235.028 433.844C235.028 434.468 234.888 435.024 234.608 435.512C234.336 435.992 233.956 436.372 233.468 436.652C232.98 436.924 232.428 437.06 231.812 437.06ZM231.812 436.304C232.268 436.304 232.672 436.204 233.024 436.004C233.376 435.796 233.652 435.508 233.852 435.14C234.06 434.764 234.164 434.332 234.164 433.844C234.164 433.348 234.06 432.916 233.852 432.548C233.652 432.18 233.376 431.896 233.024 431.696C232.672 431.488 232.272 431.384 231.824 431.384C231.376 431.384 230.976 431.488 230.624 431.696C230.272 431.896 229.992 432.18 229.784 432.548C229.576 432.916 229.472 433.348 229.472 433.844C229.472 434.332 229.576 434.764 229.784 435.14C229.992 435.508 230.272 435.796 230.624 436.004C230.976 436.204 231.372 436.304 231.812 436.304Z" fill="white"/>
<path d="M-23.3365 396.6H-22.4605V405H-23.3365V396.6ZM-28.5925 405H-29.4805V396.6H-28.5925V405ZM-23.2525 401.124H-28.6885V400.344H-23.2525V401.124ZM-17.237 405.06C-17.845 405.06 -18.393 404.924 -18.881 404.652C-19.361 404.372 -19.741 403.992 -20.021 403.512C-20.301 403.024 -20.441 402.468 -20.441 401.844C-20.441 401.212 -20.301 400.656 -20.021 400.176C-19.741 399.696 -19.361 399.32 -18.881 399.048C-18.401 398.776 -17.853 398.64 -17.237 398.64C-16.613 398.64 -16.061 398.776 -15.581 399.048C-15.093 399.32 -14.713 399.696 -14.441 400.176C-14.161 400.656 -14.021 401.212 -14.021 401.844C-14.021 402.468 -14.161 403.024 -14.441 403.512C-14.713 403.992 -15.093 404.372 -15.581 404.652C-16.069 404.924 -16.621 405.06 -17.237 405.06ZM-17.237 404.304C-16.781 404.304 -16.377 404.204 -16.025 404.004C-15.673 403.796 -15.397 403.508 -15.197 403.14C-14.989 402.764 -14.885 402.332 -14.885 401.844C-14.885 401.348 -14.989 400.916 -15.197 400.548C-15.397 400.18 -15.673 399.896 -16.025 399.696C-16.377 399.488 -16.777 399.384 -17.225 399.384C-17.673 399.384 -18.073 399.488 -18.425 399.696C-18.777 399.896 -19.057 400.18 -19.265 400.548C-19.473 400.916 -19.577 401.348 -19.577 401.844C-19.577 402.332 -19.473 402.764 -19.265 403.14C-19.057 403.508 -18.777 403.796 -18.425 404.004C-18.073 404.204 -17.677 404.304 -17.237 404.304ZM-12.2001 405V398.7H-9.41611C-8.70411 398.7 -8.14411 398.836 -7.73611 399.108C-7.32011 399.38 -7.11211 399.78 -7.11211 400.308C-7.11211 400.82 -7.30811 401.216 -7.70011 401.496C-8.09211 401.768 -8.60811 401.904 -9.24811 401.904L-9.08011 401.652C-8.32811 401.652 -7.77611 401.792 -7.42411 402.072C-7.07211 402.352 -6.89611 402.756 -6.89611 403.284C-6.89611 403.828 -7.09611 404.252 -7.49611 404.556C-7.88811 404.852 -8.50011 405 -9.33211 405H-12.2001ZM-11.3721 404.328H-9.36811C-8.83211 404.328 -8.42811 404.244 -8.15611 404.076C-7.87611 403.9 -7.73611 403.62 -7.73611 403.236C-7.73611 402.852 -7.86011 402.572 -8.10811 402.396C-8.35611 402.22 -8.74811 402.132 -9.28411 402.132H-11.3721V404.328ZM-11.3721 401.496H-9.47611C-8.98811 401.496 -8.61611 401.404 -8.36011 401.22C-8.09611 401.036 -7.96411 400.768 -7.96411 400.416C-7.96411 400.064 -8.09611 399.8 -8.36011 399.624C-8.61611 399.448 -8.98811 399.36 -9.47611 399.36H-11.3721V401.496ZM-2.30733 405.06C-2.91533 405.06 -3.46333 404.924 -3.95133 404.652C-4.43133 404.372 -4.81133 403.992 -5.09133 403.512C-5.37133 403.024 -5.51133 402.468 -5.51133 401.844C-5.51133 401.212 -5.37133 400.656 -5.09133 400.176C-4.81133 399.696 -4.43133 399.32 -3.95133 399.048C-3.47133 398.776 -2.92333 398.64 -2.30733 398.64C-1.68333 398.64 -1.13133 398.776 -0.651328 399.048C-0.163328 399.32 0.216672 399.696 0.488672 400.176C0.768672 400.656 0.908672 401.212 0.908672 401.844C0.908672 402.468 0.768672 403.024 0.488672 403.512C0.216672 403.992 -0.163328 404.372 -0.651328 404.652C-1.13933 404.924 -1.69133 405.06 -2.30733 405.06ZM-2.30733 404.304C-1.85133 404.304 -1.44733 404.204 -1.09533 404.004C-0.743328 403.796 -0.467328 403.508 -0.267328 403.14C-0.059328 402.764 0.044672 402.332 0.044672 401.844C0.044672 401.348 -0.059328 400.916 -0.267328 400.548C-0.467328 400.18 -0.743328 399.896 -1.09533 399.696C-1.44733 399.488 -1.84733 399.384 -2.29533 399.384C-2.74333 399.384 -3.14333 399.488 -3.49533 399.696C-3.84733 399.896 -4.12733 400.18 -4.33533 400.548C-4.54333 400.916 -4.64733 401.348 -4.64733 401.844C-4.64733 402.332 -4.54333 402.764 -4.33533 403.14C-4.12733 403.508 -3.84733 403.796 -3.49533 404.004C-3.14333 404.204 -2.74733 404.304 -2.30733 404.304ZM5.36958 405.06C4.74558 405.06 4.18558 404.924 3.68958 404.652C3.20158 404.372 2.81758 403.992 2.53758 403.512C2.25758 403.024 2.11758 402.468 2.11758 401.844C2.11758 401.212 2.25758 400.656 2.53758 400.176C2.81758 399.696 3.20158 399.32 3.68958 399.048C4.18558 398.776 4.74558 398.64 5.36958 398.64C5.90558 398.64 6.38958 398.744 6.82158 398.952C7.25358 399.16 7.59358 399.472 7.84158 399.888L7.20558 400.32C6.98958 400 6.72158 399.764 6.40158 399.612C6.08158 399.46 5.73358 399.384 5.35758 399.384C4.90958 399.384 4.50558 399.488 4.14558 399.696C3.78558 399.896 3.50158 400.18 3.29358 400.548C3.08558 400.916 2.98158 401.348 2.98158 401.844C2.98158 402.34 3.08558 402.772 3.29358 403.14C3.50158 403.508 3.78558 403.796 4.14558 404.004C4.50558 404.204 4.90958 404.304 5.35758 404.304C5.73358 404.304 6.08158 404.228 6.40158 404.076C6.72158 403.924 6.98958 403.692 7.20558 403.38L7.84158 403.812C7.59358 404.22 7.25358 404.532 6.82158 404.748C6.38958 404.956 5.90558 405.06 5.36958 405.06ZM12.0858 405.06C11.4298 405.06 10.8538 404.924 10.3578 404.652C9.86183 404.372 9.47383 403.992 9.19383 403.512C8.91383 403.024 8.77383 402.468 8.77383 401.844C8.77383 401.22 8.90583 400.668 9.16983 400.188C9.44183 399.708 9.80983 399.332 10.2738 399.06C10.7458 398.78 11.2738 398.64 11.8578 398.64C12.4498 398.64 12.9738 398.776 13.4298 399.048C13.8938 399.312 14.2578 399.688 14.5218 400.176C14.7858 400.656 14.9178 401.212 14.9178 401.844C14.9178 401.884 14.9138 401.928 14.9058 401.976C14.9058 402.016 14.9058 402.06 14.9058 402.108H9.42183V401.472H14.4498L14.1138 401.724C14.1138 401.268 14.0138 400.864 13.8138 400.512C13.6218 400.152 13.3578 399.872 13.0218 399.672C12.6858 399.472 12.2978 399.372 11.8578 399.372C11.4258 399.372 11.0378 399.472 10.6938 399.672C10.3498 399.872 10.0818 400.152 9.88983 400.512C9.69783 400.872 9.60183 401.284 9.60183 401.748V401.88C9.60183 402.36 9.70583 402.784 9.91383 403.152C10.1298 403.512 10.4258 403.796 10.8018 404.004C11.1858 404.204 11.6218 404.304 12.1098 404.304C12.4938 404.304 12.8498 404.236 13.1778 404.1C13.5138 403.964 13.8018 403.756 14.0418 403.476L14.5218 404.028C14.2418 404.364 13.8898 404.62 13.4658 404.796C13.0498 404.972 12.5898 405.06 12.0858 405.06ZM15.5229 404.988L15.5829 404.256C15.6389 404.264 15.6909 404.276 15.7389 404.292C15.7949 404.3 15.8429 404.304 15.8829 404.304C16.1389 404.304 16.3429 404.208 16.4949 404.016C16.6549 403.824 16.7749 403.568 16.8549 403.248C16.9349 402.928 16.9909 402.568 17.0229 402.168C17.0549 401.76 17.0829 401.352 17.1069 400.944L17.2149 398.7H21.8349V405H20.9829V399.192L21.1989 399.444H17.7669L17.9709 399.18L17.8749 401.004C17.8509 401.548 17.8069 402.068 17.7429 402.564C17.6869 403.06 17.5949 403.496 17.4669 403.872C17.3469 404.248 17.1789 404.544 16.9629 404.76C16.7469 404.968 16.4709 405.072 16.1349 405.072C16.0389 405.072 15.9389 405.064 15.8349 405.048C15.7389 405.032 15.6349 405.012 15.5229 404.988ZM28.8769 405L26.2849 401.88L26.9929 401.46L29.8849 405H28.8769ZM24.2569 405V398.7H25.1089V405H24.2569ZM24.8449 402.192V401.46H26.8729V402.192H24.8449ZM27.0649 401.94L26.2729 401.82L28.7809 398.7H29.7049L27.0649 401.94ZM35.0244 405V403.608L34.9884 403.38V401.052C34.9884 400.516 34.8364 400.104 34.5324 399.816C34.2364 399.528 33.7924 399.384 33.2004 399.384C32.7924 399.384 32.4044 399.452 32.0364 399.588C31.6684 399.724 31.3564 399.904 31.1004 400.128L30.7164 399.492C31.0364 399.22 31.4204 399.012 31.8684 398.868C32.3164 398.716 32.7884 398.64 33.2844 398.64C34.1004 398.64 34.7284 398.844 35.1684 399.252C35.6164 399.652 35.8404 400.264 35.8404 401.088V405H35.0244ZM32.8524 405.06C32.3804 405.06 31.9684 404.984 31.6164 404.832C31.2724 404.672 31.0084 404.456 30.8244 404.184C30.6404 403.904 30.5484 403.584 30.5484 403.224C30.5484 402.896 30.6244 402.6 30.7764 402.336C30.9364 402.064 31.1924 401.848 31.5444 401.688C31.9044 401.52 32.3844 401.436 32.9844 401.436H35.1564V402.072H33.0084C32.4004 402.072 31.9764 402.18 31.7364 402.396C31.5044 402.612 31.3884 402.88 31.3884 403.2C31.3884 403.56 31.5284 403.848 31.8084 404.064C32.0884 404.28 32.4804 404.388 32.9844 404.388C33.4644 404.388 33.8764 404.28 34.2204 404.064C34.5724 403.84 34.8284 403.52 34.9884 403.104L35.1804 403.692C35.0204 404.108 34.7404 404.44 34.3404 404.688C33.9484 404.936 33.4524 405.06 32.8524 405.06Z" fill="white"/>
<path d="M92.0702 181.58V174.368H88.0502L87.9782 176.408C87.9542 177.04 87.9142 177.648 87.8582 178.232C87.8102 178.808 87.7302 179.328 87.6182 179.792C87.5142 180.248 87.3702 180.62 87.1862 180.908C87.0102 181.196 86.7782 181.364 86.4902 181.412L85.5182 181.232C85.8382 181.248 86.1022 181.132 86.3102 180.884C86.5262 180.636 86.6902 180.288 86.8022 179.84C86.9222 179.392 87.0102 178.868 87.0662 178.268C87.1222 177.668 87.1622 177.02 87.1862 176.324L87.2822 173.6H92.9462V181.58H92.0702ZM85.2062 183.884L85.2182 181.232H94.2062V183.884H93.3782V182H86.0462L86.0342 183.884H85.2062ZM98.3378 182.06C97.6818 182.06 97.1058 181.924 96.6098 181.652C96.1138 181.372 95.7258 180.992 95.4458 180.512C95.1658 180.024 95.0258 179.468 95.0258 178.844C95.0258 178.22 95.1578 177.668 95.4218 177.188C95.6938 176.708 96.0618 176.332 96.5258 176.06C96.9978 175.78 97.5258 175.64 98.1098 175.64C98.7018 175.64 99.2258 175.776 99.6818 176.048C100.146 176.312 100.51 176.688 100.774 177.176C101.038 177.656 101.17 178.212 101.17 178.844C101.17 178.884 101.166 178.928 101.158 178.976C101.158 179.016 101.158 179.06 101.158 179.108H95.6738V178.472H100.702L100.366 178.724C100.366 178.268 100.266 177.864 100.066 177.512C99.8738 177.152 99.6098 176.872 99.2738 176.672C98.9378 176.472 98.5498 176.372 98.1098 176.372C97.6778 176.372 97.2898 176.472 96.9458 176.672C96.6018 176.872 96.3338 177.152 96.1418 177.512C95.9498 177.872 95.8538 178.284 95.8538 178.748V178.88C95.8538 179.36 95.9578 179.784 96.1658 180.152C96.3818 180.512 96.6778 180.796 97.0538 181.004C97.4378 181.204 97.8738 181.304 98.3618 181.304C98.7458 181.304 99.1018 181.236 99.4298 181.1C99.7658 180.964 100.054 180.756 100.294 180.476L100.774 181.028C100.494 181.364 100.142 181.62 99.7178 181.796C99.3018 181.972 98.8418 182.06 98.3378 182.06ZM103.056 182V175.7H103.908V178.484H107.88V175.7H108.732V182H107.88V179.216H103.908V182H103.056ZM111.153 182V175.7H112.005V180.704L116.217 175.7H116.973V182H116.121V176.984L111.921 182H111.153ZM122.055 182.06C121.431 182.06 120.871 181.924 120.375 181.652C119.887 181.372 119.503 180.992 119.223 180.512C118.943 180.024 118.803 179.468 118.803 178.844C118.803 178.212 118.943 177.656 119.223 177.176C119.503 176.696 119.887 176.32 120.375 176.048C120.871 175.776 121.431 175.64 122.055 175.64C122.591 175.64 123.075 175.744 123.507 175.952C123.939 176.16 124.279 176.472 124.527 176.888L123.891 177.32C123.675 177 123.407 176.764 123.087 176.612C122.767 176.46 122.419 176.384 122.043 176.384C121.595 176.384 121.191 176.488 120.831 176.696C120.471 176.896 120.187 177.18 119.979 177.548C119.771 177.916 119.667 178.348 119.667 178.844C119.667 179.34 119.771 179.772 119.979 180.14C120.187 180.508 120.471 180.796 120.831 181.004C121.191 181.204 121.595 181.304 122.043 181.304C122.419 181.304 122.767 181.228 123.087 181.076C123.407 180.924 123.675 180.692 123.891 180.38L124.527 180.812C124.279 181.22 123.939 181.532 123.507 181.748C123.075 181.956 122.591 182.06 122.055 182.06ZM130.797 182L128.205 178.88L128.913 178.46L131.805 182H130.797ZM126.177 182V175.7H127.029V182H126.177ZM126.765 179.192V178.46H128.793V179.192H126.765ZM128.985 178.94L128.193 178.82L130.701 175.7H131.625L128.985 178.94ZM133.15 182V175.7H134.002V180.704L138.214 175.7H138.97V182H138.118V176.984L133.918 182H133.15ZM141.411 182V175.7H142.263V178.484H146.235V175.7H147.087V182H146.235V179.216H142.263V182H141.411ZM152.101 182.06C151.493 182.06 150.945 181.924 150.457 181.652C149.977 181.372 149.597 180.992 149.317 180.512C149.037 180.024 148.897 179.468 148.897 178.844C148.897 178.212 149.037 177.656 149.317 177.176C149.597 176.696 149.977 176.32 150.457 176.048C150.937 175.776 151.485 175.64 152.101 175.64C152.725 175.64 153.277 175.776 153.757 176.048C154.245 176.32 154.625 176.696 154.897 177.176C155.177 177.656 155.317 178.212 155.317 178.844C155.317 179.468 155.177 180.024 154.897 180.512C154.625 180.992 154.245 181.372 153.757 181.652C153.269 181.924 152.717 182.06 152.101 182.06ZM152.101 181.304C152.557 181.304 152.961 181.204 153.313 181.004C153.665 180.796 153.941 180.508 154.141 180.14C154.349 179.764 154.453 179.332 154.453 178.844C154.453 178.348 154.349 177.916 154.141 177.548C153.941 177.18 153.665 176.896 153.313 176.696C152.961 176.488 152.561 176.384 152.113 176.384C151.665 176.384 151.265 176.488 150.913 176.696C150.561 176.896 150.281 177.18 150.073 177.548C149.865 177.916 149.761 178.348 149.761 178.844C149.761 179.332 149.865 179.764 150.073 180.14C150.281 180.508 150.561 180.796 150.913 181.004C151.265 181.204 151.661 181.304 152.101 181.304Z" fill="white"/>
<path d="M313.559 194V185.6H317.051C317.939 185.6 318.635 185.784 319.139 186.152C319.651 186.512 319.907 187.044 319.907 187.748C319.907 188.444 319.663 188.972 319.175 189.332C318.687 189.684 318.047 189.86 317.255 189.86L317.459 189.56C318.395 189.56 319.107 189.744 319.595 190.112C320.083 190.48 320.327 191.02 320.327 191.732C320.327 192.452 320.071 193.012 319.559 193.412C319.055 193.804 318.295 194 317.279 194H313.559ZM314.435 193.292H317.279C317.991 193.292 318.531 193.16 318.899 192.896C319.267 192.632 319.451 192.224 319.451 191.672C319.451 191.128 319.267 190.728 318.899 190.472C318.531 190.216 317.991 190.088 317.279 190.088H314.435V193.292ZM314.435 189.404H317.003C317.651 189.404 318.147 189.276 318.491 189.02C318.843 188.756 319.019 188.368 319.019 187.856C319.019 187.344 318.843 186.96 318.491 186.704C318.147 186.44 317.651 186.308 317.003 186.308H314.435V189.404ZM325.043 194.06C324.387 194.06 323.811 193.924 323.315 193.652C322.819 193.372 322.431 192.992 322.151 192.512C321.871 192.024 321.731 191.468 321.731 190.844C321.731 190.22 321.863 189.668 322.127 189.188C322.399 188.708 322.767 188.332 323.231 188.06C323.703 187.78 324.231 187.64 324.815 187.64C325.407 187.64 325.931 187.776 326.387 188.048C326.851 188.312 327.215 188.688 327.479 189.176C327.743 189.656 327.875 190.212 327.875 190.844C327.875 190.884 327.871 190.928 327.863 190.976C327.863 191.016 327.863 191.06 327.863 191.108H322.379V190.472H327.407L327.071 190.724C327.071 190.268 326.971 189.864 326.771 189.512C326.579 189.152 326.315 188.872 325.979 188.672C325.643 188.472 325.255 188.372 324.815 188.372C324.383 188.372 323.995 188.472 323.651 188.672C323.307 188.872 323.039 189.152 322.847 189.512C322.655 189.872 322.559 190.284 322.559 190.748V190.88C322.559 191.36 322.663 191.784 322.871 192.152C323.087 192.512 323.383 192.796 323.759 193.004C324.143 193.204 324.579 193.304 325.067 193.304C325.451 193.304 325.807 193.236 326.135 193.1C326.471 192.964 326.759 192.756 326.999 192.476L327.479 193.028C327.199 193.364 326.847 193.62 326.423 193.796C326.007 193.972 325.547 194.06 325.043 194.06ZM332.401 194.06C331.777 194.06 331.217 193.924 330.721 193.652C330.233 193.372 329.849 192.992 329.569 192.512C329.289 192.024 329.149 191.468 329.149 190.844C329.149 190.212 329.289 189.656 329.569 189.176C329.849 188.696 330.233 188.32 330.721 188.048C331.217 187.776 331.777 187.64 332.401 187.64C332.937 187.64 333.421 187.744 333.853 187.952C334.285 188.16 334.625 188.472 334.873 188.888L334.237 189.32C334.021 189 333.753 188.764 333.433 188.612C333.113 188.46 332.765 188.384 332.389 188.384C331.941 188.384 331.537 188.488 331.177 188.696C330.817 188.896 330.533 189.18 330.325 189.548C330.117 189.916 330.013 190.348 330.013 190.844C330.013 191.34 330.117 191.772 330.325 192.14C330.533 192.508 330.817 192.796 331.177 193.004C331.537 193.204 331.941 193.304 332.389 193.304C332.765 193.304 333.113 193.228 333.433 193.076C333.753 192.924 334.021 192.692 334.237 192.38L334.873 192.812C334.625 193.22 334.285 193.532 333.853 193.748C333.421 193.956 332.937 194.06 332.401 194.06ZM339.117 194.06C338.461 194.06 337.885 193.924 337.389 193.652C336.893 193.372 336.505 192.992 336.225 192.512C335.945 192.024 335.805 191.468 335.805 190.844C335.805 190.22 335.937 189.668 336.201 189.188C336.473 188.708 336.841 188.332 337.305 188.06C337.777 187.78 338.305 187.64 338.889 187.64C339.481 187.64 340.005 187.776 340.461 188.048C340.925 188.312 341.289 188.688 341.553 189.176C341.817 189.656 341.949 190.212 341.949 190.844C341.949 190.884 341.945 190.928 341.937 190.976C341.937 191.016 341.937 191.06 341.937 191.108H336.453V190.472H341.481L341.145 190.724C341.145 190.268 341.045 189.864 340.845 189.512C340.653 189.152 340.389 188.872 340.053 188.672C339.717 188.472 339.329 188.372 338.889 188.372C338.457 188.372 338.069 188.472 337.725 188.672C337.381 188.872 337.113 189.152 336.921 189.512C336.729 189.872 336.633 190.284 336.633 190.748V190.88C336.633 191.36 336.737 191.784 336.945 192.152C337.161 192.512 337.457 192.796 337.833 193.004C338.217 193.204 338.653 193.304 339.141 193.304C339.525 193.304 339.881 193.236 340.209 193.1C340.545 192.964 340.833 192.756 341.073 192.476L341.553 193.028C341.273 193.364 340.921 193.62 340.497 193.796C340.081 193.972 339.621 194.06 339.117 194.06ZM342.554 193.988L342.614 193.256C342.67 193.264 342.722 193.276 342.77 193.292C342.826 193.3 342.874 193.304 342.914 193.304C343.17 193.304 343.374 193.208 343.526 193.016C343.686 192.824 343.806 192.568 343.886 192.248C343.966 191.928 344.022 191.568 344.054 191.168C344.086 190.76 344.114 190.352 344.138 189.944L344.246 187.7H348.866V194H348.014V188.192L348.23 188.444H344.798L345.002 188.18L344.906 190.004C344.882 190.548 344.838 191.068 344.774 191.564C344.718 192.06 344.626 192.496 344.498 192.872C344.378 193.248 344.21 193.544 343.994 193.76C343.778 193.968 343.502 194.072 343.166 194.072C343.07 194.072 342.97 194.064 342.866 194.048C342.77 194.032 342.666 194.012 342.554 193.988ZM353.88 194.06C353.272 194.06 352.724 193.924 352.236 193.652C351.756 193.372 351.376 192.992 351.096 192.512C350.816 192.024 350.676 191.468 350.676 190.844C350.676 190.212 350.816 189.656 351.096 189.176C351.376 188.696 351.756 188.32 352.236 188.048C352.716 187.776 353.264 187.64 353.88 187.64C354.504 187.64 355.056 187.776 355.536 188.048C356.024 188.32 356.404 188.696 356.676 189.176C356.956 189.656 357.096 190.212 357.096 190.844C357.096 191.468 356.956 192.024 356.676 192.512C356.404 192.992 356.024 193.372 355.536 193.652C355.048 193.924 354.496 194.06 353.88 194.06ZM353.88 193.304C354.336 193.304 354.74 193.204 355.092 193.004C355.444 192.796 355.72 192.508 355.92 192.14C356.128 191.764 356.232 191.332 356.232 190.844C356.232 190.348 356.128 189.916 355.92 189.548C355.72 189.18 355.444 188.896 355.092 188.696C354.74 188.488 354.34 188.384 353.892 188.384C353.444 188.384 353.044 188.488 352.692 188.696C352.34 188.896 352.06 189.18 351.852 189.548C351.644 189.916 351.54 190.348 351.54 190.844C351.54 191.332 351.644 191.764 351.852 192.14C352.06 192.508 352.34 192.796 352.692 193.004C353.044 193.204 353.44 193.304 353.88 193.304ZM358.917 194V187.7H361.701C362.413 187.7 362.973 187.836 363.381 188.108C363.797 188.38 364.005 188.78 364.005 189.308C364.005 189.82 363.809 190.216 363.417 190.496C363.025 190.768 362.509 190.904 361.869 190.904L362.037 190.652C362.789 190.652 363.341 190.792 363.693 191.072C364.045 191.352 364.221 191.756 364.221 192.284C364.221 192.828 364.021 193.252 363.621 193.556C363.229 193.852 362.617 194 361.785 194H358.917ZM359.745 193.328H361.749C362.285 193.328 362.689 193.244 362.961 193.076C363.241 192.9 363.381 192.62 363.381 192.236C363.381 191.852 363.257 191.572 363.009 191.396C362.761 191.22 362.369 191.132 361.833 191.132H359.745V193.328ZM359.745 190.496H361.641C362.129 190.496 362.501 190.404 362.757 190.22C363.021 190.036 363.153 189.768 363.153 189.416C363.153 189.064 363.021 188.8 362.757 188.624C362.501 188.448 362.129 188.36 361.641 188.36H359.745V190.496ZM370.838 194L368.246 190.88L368.954 190.46L371.846 194H370.838ZM366.218 194V187.7H367.07V194H366.218ZM366.806 191.192V190.46H368.834V191.192H366.806ZM369.026 190.94L368.234 190.82L370.742 187.7H371.666L369.026 190.94ZM376.985 194V192.608L376.949 192.38V190.052C376.949 189.516 376.797 189.104 376.493 188.816C376.197 188.528 375.753 188.384 375.161 188.384C374.753 188.384 374.365 188.452 373.997 188.588C373.629 188.724 373.317 188.904 373.061 189.128L372.677 188.492C372.997 188.22 373.381 188.012 373.829 187.868C374.277 187.716 374.749 187.64 375.245 187.64C376.061 187.64 376.689 187.844 377.129 188.252C377.577 188.652 377.801 189.264 377.801 190.088V194H376.985ZM374.813 194.06C374.341 194.06 373.929 193.984 373.577 193.832C373.233 193.672 372.969 193.456 372.785 193.184C372.601 192.904 372.509 192.584 372.509 192.224C372.509 191.896 372.585 191.6 372.737 191.336C372.897 191.064 373.153 190.848 373.505 190.688C373.865 190.52 374.345 190.436 374.945 190.436H377.117V191.072H374.969C374.361 191.072 373.937 191.18 373.697 191.396C373.465 191.612 373.349 191.88 373.349 192.2C373.349 192.56 373.489 192.848 373.769 193.064C374.049 193.28 374.441 193.388 374.945 193.388C375.425 193.388 375.837 193.28 376.181 193.064C376.533 192.84 376.789 192.52 376.949 192.104L377.141 192.692C376.981 193.108 376.701 193.44 376.301 193.688C375.909 193.936 375.413 194.06 374.813 194.06Z" fill="white"/>
<path d="M661.625 457V448.6H667.769V449.356H662.501V452.104H665.249C666.241 452.104 666.993 452.308 667.505 452.716C668.025 453.116 668.285 453.708 668.285 454.492C668.285 455.3 668.005 455.92 667.445 456.352C666.893 456.784 666.097 457 665.057 457H661.625ZM662.501 456.292H665.045C665.821 456.292 666.405 456.144 666.797 455.848C667.197 455.544 667.397 455.104 667.397 454.528C667.397 453.384 666.613 452.812 665.045 452.812H662.501V456.292ZM674.04 457V455.608L674.004 455.38V453.052C674.004 452.516 673.852 452.104 673.548 451.816C673.252 451.528 672.808 451.384 672.216 451.384C671.808 451.384 671.42 451.452 671.052 451.588C670.684 451.724 670.372 451.904 670.116 452.128L669.732 451.492C670.052 451.22 670.436 451.012 670.884 450.868C671.332 450.716 671.804 450.64 672.3 450.64C673.116 450.64 673.744 450.844 674.184 451.252C674.632 451.652 674.856 452.264 674.856 453.088V457H674.04ZM671.868 457.06C671.396 457.06 670.984 456.984 670.632 456.832C670.288 456.672 670.024 456.456 669.84 456.184C669.656 455.904 669.564 455.584 669.564 455.224C669.564 454.896 669.64 454.6 669.792 454.336C669.952 454.064 670.208 453.848 670.56 453.688C670.92 453.52 671.4 453.436 672 453.436H674.172V454.072H672.024C671.416 454.072 670.992 454.18 670.752 454.396C670.52 454.612 670.404 454.88 670.404 455.2C670.404 455.56 670.544 455.848 670.824 456.064C671.104 456.28 671.496 456.388 672 456.388C672.48 456.388 672.892 456.28 673.236 456.064C673.588 455.84 673.844 455.52 674.004 455.104L674.196 455.692C674.036 456.108 673.756 456.44 673.356 456.688C672.964 456.936 672.468 457.06 671.868 457.06ZM678.324 457V451.216L678.54 451.444H675.936V450.7H681.564V451.444H678.96L679.176 451.216V457H678.324ZM688.94 457V450.7H689.792V457H688.94ZM685.448 452.92C686.24 452.928 686.844 453.104 687.26 453.448C687.676 453.792 687.884 454.288 687.884 454.936C687.884 455.608 687.66 456.124 687.212 456.484C686.764 456.844 686.124 457.02 685.292 457.012L682.796 457V450.7H683.648V452.896L685.448 452.92ZM685.232 456.364C685.824 456.372 686.268 456.256 686.564 456.016C686.868 455.768 687.02 455.408 687.02 454.936C687.02 454.464 686.872 454.12 686.576 453.904C686.28 453.68 685.832 453.564 685.232 453.556L683.648 453.532V456.34L685.232 456.364ZM695.47 457.06C694.926 457.06 694.434 456.936 693.994 456.688C693.554 456.432 693.202 456.068 692.938 455.596C692.682 455.116 692.554 454.532 692.554 453.844C692.554 453.156 692.682 452.576 692.938 452.104C693.194 451.624 693.542 451.26 693.982 451.012C694.422 450.764 694.918 450.64 695.47 450.64C696.07 450.64 696.606 450.776 697.078 451.048C697.558 451.312 697.934 451.688 698.206 452.176C698.478 452.656 698.614 453.212 698.614 453.844C698.614 454.484 698.478 455.044 698.206 455.524C697.934 456.004 697.558 456.38 697.078 456.652C696.606 456.924 696.07 457.06 695.47 457.06ZM692.218 459.328V450.7H693.034V452.596L692.95 453.856L693.07 455.128V459.328H692.218ZM695.41 456.304C695.858 456.304 696.258 456.204 696.61 456.004C696.962 455.796 697.242 455.508 697.45 455.14C697.658 454.764 697.762 454.332 697.762 453.844C697.762 453.356 697.658 452.928 697.45 452.56C697.242 452.192 696.962 451.904 696.61 451.696C696.258 451.488 695.858 451.384 695.41 451.384C694.962 451.384 694.558 451.488 694.198 451.696C693.846 451.904 693.566 452.192 693.358 452.56C693.158 452.928 693.058 453.356 693.058 453.844C693.058 454.332 693.158 454.764 693.358 455.14C693.566 455.508 693.846 455.796 694.198 456.004C694.558 456.204 694.962 456.304 695.41 456.304ZM703.036 457.06C702.428 457.06 701.88 456.924 701.392 456.652C700.912 456.372 700.532 455.992 700.252 455.512C699.972 455.024 699.832 454.468 699.832 453.844C699.832 453.212 699.972 452.656 700.252 452.176C700.532 451.696 700.912 451.32 701.392 451.048C701.872 450.776 702.42 450.64 703.036 450.64C703.66 450.64 704.212 450.776 704.692 451.048C705.18 451.32 705.56 451.696 705.832 452.176C706.112 452.656 706.252 453.212 706.252 453.844C706.252 454.468 706.112 455.024 705.832 455.512C705.56 455.992 705.18 456.372 704.692 456.652C704.204 456.924 703.652 457.06 703.036 457.06ZM703.036 456.304C703.492 456.304 703.896 456.204 704.248 456.004C704.6 455.796 704.876 455.508 705.076 455.14C705.284 454.764 705.388 454.332 705.388 453.844C705.388 453.348 705.284 452.916 705.076 452.548C704.876 452.18 704.6 451.896 704.248 451.696C703.896 451.488 703.496 451.384 703.048 451.384C702.6 451.384 702.2 451.488 701.848 451.696C701.496 451.896 701.216 452.18 701.008 452.548C700.8 452.916 700.696 453.348 700.696 453.844C700.696 454.332 700.8 454.764 701.008 455.14C701.216 455.508 701.496 455.796 701.848 456.004C702.2 456.204 702.596 456.304 703.036 456.304ZM708.073 457V450.7H710.857C711.569 450.7 712.129 450.836 712.537 451.108C712.953 451.38 713.161 451.78 713.161 452.308C713.161 452.82 712.965 453.216 712.573 453.496C712.181 453.768 711.665 453.904 711.025 453.904L711.193 453.652C711.945 453.652 712.497 453.792 712.849 454.072C713.201 454.352 713.377 454.756 713.377 455.284C713.377 455.828 713.177 456.252 712.777 456.556C712.385 456.852 711.773 457 710.941 457H708.073ZM708.901 456.328H710.905C711.441 456.328 711.845 456.244 712.117 456.076C712.397 455.9 712.537 455.62 712.537 455.236C712.537 454.852 712.413 454.572 712.165 454.396C711.917 454.22 711.525 454.132 710.989 454.132H708.901V456.328ZM708.901 453.496H710.797C711.285 453.496 711.657 453.404 711.913 453.22C712.177 453.036 712.309 452.768 712.309 452.416C712.309 452.064 712.177 451.8 711.913 451.624C711.657 451.448 711.285 451.36 710.797 451.36H708.901V453.496ZM717.966 457.06C717.358 457.06 716.81 456.924 716.322 456.652C715.842 456.372 715.462 455.992 715.182 455.512C714.902 455.024 714.762 454.468 714.762 453.844C714.762 453.212 714.902 452.656 715.182 452.176C715.462 451.696 715.842 451.32 716.322 451.048C716.802 450.776 717.35 450.64 717.966 450.64C718.59 450.64 719.142 450.776 719.622 451.048C720.11 451.32 720.49 451.696 720.762 452.176C721.042 452.656 721.182 453.212 721.182 453.844C721.182 454.468 721.042 455.024 720.762 455.512C720.49 455.992 720.11 456.372 719.622 456.652C719.134 456.924 718.582 457.06 717.966 457.06ZM717.966 456.304C718.422 456.304 718.826 456.204 719.178 456.004C719.53 455.796 719.806 455.508 720.006 455.14C720.214 454.764 720.318 454.332 720.318 453.844C720.318 453.348 720.214 452.916 720.006 452.548C719.806 452.18 719.53 451.896 719.178 451.696C718.826 451.488 718.426 451.384 717.978 451.384C717.53 451.384 717.13 451.488 716.778 451.696C716.426 451.896 716.146 452.18 715.938 452.548C715.73 452.916 715.626 453.348 715.626 453.844C715.626 454.332 715.73 454.764 715.938 455.14C716.146 455.508 716.426 455.796 716.778 456.004C717.13 456.204 717.526 456.304 717.966 456.304Z" fill="white"/>
<defs>
<radialGradient id="paint0_radial_20_2" cx="0" cy="0" r="1" gradientUnits="userSpaceOnUse" gradientTransform="translate(455.5 670.5) rotate(149.516) scale(480.985 884.998)">
<stop stop-color="#FFA800"/>
<stop offset="0.766833" stop-color="#B97A00" stop-opacity="0.8"/>
<stop offset="0.901141" stop-color="#996500" stop-opacity="0"/>
</radialGradient>
</defs>
</svg>
